<svg width="63" height="34" viewBox="0 0 63 34" fill="none" xmlns="http://www.w3.org/2000/svg">
<path d="M62.3492 17.56C62.3738 17.5392 62.3894 17.5266 62.3894 17.5266L53.2185 8.43213C53.2185 8.43213 53.1961 8.44054 53.1585 8.4538C52.9319 8.21702 52.5904 8.06618 52.2084 8.06618H44.3132V1.63093C44.3132 1.0385 43.7603 0.558105 43.0782 0.558105H4.24372C3.5616 0.558105 3.00869 1.0385 3.00869 1.63093V25.1975H1.93071C1.24859 25.1975 0.695679 25.6779 0.695679 26.2703C0.695679 26.8627 1.24859 27.3431 1.93071 27.3431H3.00869V28.5969C3.00869 29.1893 3.5616 29.6697 4.24372 29.6697H6.67758C7.24199 31.8457 9.48356 33.4766 12.1567 33.4766C14.8298 33.4766 17.0714 31.8457 17.6359 29.6697H46.6077C47.1721 31.8457 49.4137 33.4765 52.0868 33.4765C54.7599 33.4765 57.0015 31.8456 57.566 29.6696H61.4606C62.1428 29.6696 62.6957 29.1892 62.6957 28.5967V18.3039C62.6956 18.0147 62.5633 17.7529 62.3492 17.56ZM12.1567 31.3308C10.4212 31.3308 9.00923 30.1042 9.00923 28.5967C9.00923 27.0893 10.4212 25.8627 12.1567 25.8627C13.8922 25.8627 15.3043 27.0893 15.3043 28.5967C15.3042 30.1042 13.8923 31.3308 12.1567 31.3308ZM41.8431 27.5238H17.6358C17.0714 25.3478 14.8298 23.7169 12.1566 23.7169C9.48343 23.7169 7.24187 25.3478 6.67746 27.5238H5.47875V22.7959H41.843L41.8431 27.5238ZM41.8431 20.6502H5.47875V2.70364H41.843L41.8431 20.6502ZM53.4435 11.9115L58.8078 17.2311H53.4435V11.9115ZM52.0867 31.3308C50.3512 31.3308 48.9392 30.1042 48.9392 28.5967C48.9392 27.0893 50.3512 25.8627 52.0867 25.8627C53.8222 25.8627 55.2343 27.0893 55.2343 28.5967C55.2343 30.1042 53.8222 31.3308 52.0867 31.3308ZM60.2255 27.5238H57.5659C57.0015 25.3478 54.7599 23.7169 52.0867 23.7169C49.4135 23.7169 47.172 25.3478 46.6076 27.5238H44.3132V10.2117H50.9733V18.3038C50.9733 18.8962 51.5263 19.3766 52.2084 19.3766H60.2254L60.2255 27.5238Z" fill="#494848"/>
</svg>
