<svg width="65" height="61" viewBox="0 0 65 61" fill="none" xmlns="http://www.w3.org/2000/svg">
<g clip-path="url(#clip0)">
<path d="M60.2705 13.8429H20.0882C17.8112 13.8429 15.9587 15.588 15.9587 17.7326V19.1385H4.52952C2.2524 19.1385 0.400024 20.8833 0.400024 23.0282V43.5128C0.400024 45.6576 2.2524 47.4025 4.52952 47.4025H44.7118C46.9888 47.4025 48.8413 45.6576 48.8413 43.5128V42.107H60.2704C62.5474 42.107 64.3999 40.3621 64.3999 38.2172V17.7326C64.4 15.5878 62.5477 13.8429 60.2705 13.8429ZM46.2917 43.5128C46.2917 44.3333 45.5829 45.0008 44.7119 45.0008H4.52952C3.65852 45.0008 2.94977 44.3332 2.94977 43.5128V23.0282C2.94977 22.2078 3.65852 21.5402 4.52952 21.5402H44.7118C45.5829 21.5402 46.2915 22.2078 46.2915 23.0282V43.5128H46.2917ZM61.8503 38.2172C61.8503 39.0376 61.1415 39.7052 60.2705 39.7052H48.8414V36.3187H61.8503V38.2172ZM61.8503 33.917H48.8414V30.4074H61.8503V33.917ZM61.8503 28.0055H48.8414V23.0281C48.8414 20.8833 46.9889 19.1384 44.7119 19.1384H18.5084V17.7326C18.5084 16.9121 19.2172 16.2446 20.0882 16.2446H60.2704C61.1414 16.2446 61.8502 16.9122 61.8502 17.7326V28.0055H61.8503Z" fill="#494848"/>
<path d="M12.1104 39.7052H6.97019C6.26606 39.7052 5.69531 40.2428 5.69531 40.9061C5.69531 41.5693 6.26606 42.1069 6.97019 42.1069H12.1103C12.8144 42.1069 13.3852 41.5693 13.3852 40.9061C13.3852 40.2428 12.8144 39.7052 12.1104 39.7052Z" fill="#494848"/>
<path d="M21.681 39.7052H16.5407C15.8366 39.7052 15.2659 40.2428 15.2659 40.9061C15.2659 41.5693 15.8366 42.1069 16.5407 42.1069H21.681C22.3851 42.1069 22.9559 41.5693 22.9559 40.9061C22.9559 40.2428 22.3851 39.7052 21.681 39.7052Z" fill="#494848"/>
<path d="M31.3005 39.7052H26.1604C25.4562 39.7052 24.8855 40.2428 24.8855 40.9061C24.8855 41.5693 25.4562 42.1069 26.1604 42.1069H31.3005C32.0046 42.1069 32.5754 41.5693 32.5754 40.9061C32.5754 40.2428 32.0046 39.7052 31.3005 39.7052Z" fill="#494848"/>
<path d="M42.0098 39.7052H41.82C41.1159 39.7052 40.5452 40.2428 40.5452 40.9061C40.5452 41.5693 41.1159 42.1069 41.82 42.1069H42.0098C42.7139 42.1069 43.2847 41.5693 43.2847 40.9061C43.2847 40.2428 42.7139 39.7052 42.0098 39.7052Z" fill="#494848"/>
<path d="M38.0252 39.7052H35.7312C35.027 39.7052 34.4563 40.2428 34.4563 40.9061C34.4563 41.5693 35.027 42.1069 35.7312 42.1069H38.0252C38.7293 42.1069 39.3001 41.5693 39.3001 40.9061C39.3001 40.2428 38.7293 39.7052 38.0252 39.7052Z" fill="#494848"/>
<path d="M10.9252 23.9415H8.50645C6.88433 23.9415 5.56445 25.1847 5.56445 26.7127V28.991C5.56445 30.519 6.8842 31.7622 8.50645 31.7622H10.9252C12.5473 31.7622 13.8672 30.5191 13.8672 28.991V26.7127C13.8671 25.1845 12.5473 23.9415 10.9252 23.9415ZM11.3173 28.9909C11.3173 29.1946 11.1415 29.3603 10.9252 29.3603H8.50645C8.2902 29.3603 8.11433 29.1945 8.11433 28.9909V26.7126C8.11433 26.5089 8.29033 26.3432 8.50645 26.3432H10.9252C11.1415 26.3432 11.3173 26.509 11.3173 26.7126V28.9909Z" fill="#494848"/>
</g>
<defs>
<clipPath id="clip0">
<rect width="64" height="60.2841" fill="white" transform="translate(0.400024 0.480652)"/>
</clipPath>
</defs>
</svg>
