<svg width="66" height="66" viewBox="0 0 66 66" fill="none" xmlns="http://www.w3.org/2000/svg">
<g clip-path="url(#clip0)">
<path d="M9.70519 56.2949C12.7292 59.3187 16.2518 61.6933 20.1753 63.3529C24.24 65.0721 28.5548 65.9437 33 65.9437C37.4452 65.9437 41.7601 65.0721 45.8247 63.3529C49.7482 61.6933 53.2709 59.3186 56.295 56.2949C59.3189 53.2707 61.6936 49.7482 63.353 45.8246C65.0722 41.7599 65.944 37.445 65.944 33C65.944 28.5547 65.0722 24.2399 63.353 20.1753C61.6936 16.2518 59.3187 12.7292 56.295 9.70519C53.2709 6.68119 49.7483 4.30651 45.8247 2.64705C41.7599 0.927755 37.4452 0.0561523 33 0.0561523C28.5548 0.0561523 24.24 0.927867 20.1753 2.64705C16.2518 4.30651 12.7292 6.6813 9.70519 9.70519C6.68119 12.7291 4.30651 16.2518 2.64694 20.1752C0.927867 24.2399 0.0561523 28.5547 0.0561523 33C0.0561523 37.4452 0.927867 41.7599 2.64705 45.8246C4.30651 49.7482 6.6813 53.2707 9.70519 56.2949ZM33 4.86546C48.5383 4.86546 61.1345 17.4617 61.1345 33C61.1345 48.5382 48.5383 61.1344 33 61.1344C17.4617 61.1344 4.86546 48.5382 4.86546 33C4.86546 17.4617 17.4617 4.86546 33 4.86546Z" fill="#F2933B" fill-opacity="0.51"/>
<path d="M33 66.0008C28.5469 66.0008 24.2248 65.1276 20.1534 63.4056C16.2231 61.7431 12.6945 59.3644 9.66554 56.3354C6.63637 53.3062 4.25765 49.7774 2.59539 45.8474C0.873174 41.7757 0 37.4535 0 33.001C0 28.5483 0.873174 24.226 2.59527 20.1543C4.25754 16.2242 6.63637 12.6956 9.66543 9.66641C12.6945 6.63724 16.2232 4.25852 20.1533 2.59625C24.225 0.874151 28.5472 0.000976562 32.9999 0.000976562C37.4529 0.000976562 41.7751 0.874151 45.8464 2.59636C49.7766 4.25863 53.3052 6.63746 56.3345 9.66652C59.3637 12.6959 61.7425 16.2245 63.4046 20.1544C65.1268 24.2261 66 28.5483 66 33.001C66 37.4535 65.1268 41.7757 63.4046 45.8475C61.7425 49.7774 59.3639 53.306 56.3345 56.3356C53.3054 59.3644 49.7767 61.7431 45.8464 63.4057C41.7751 65.1276 37.4529 66.0008 33 66.0008ZM33 0.113239C28.5624 0.113239 24.255 0.983382 20.1972 2.69965C16.2805 4.3563 12.7638 6.72694 9.74491 9.74578C6.72596 12.7647 4.35532 16.2813 2.69867 20.1979C0.982405 24.2559 0.112262 28.5634 0.112262 33.001C0.112262 37.4384 0.982405 41.746 2.69867 45.8038C4.35532 49.7205 6.72596 53.2371 9.74491 56.2561C12.7636 59.2747 16.2802 61.6453 20.1972 63.3022C24.2546 65.0184 28.5621 65.8885 33 65.8885C37.4379 65.8885 41.7453 65.0184 45.8028 63.3021C49.7196 61.6453 53.2364 59.2747 56.2551 56.2561C59.2742 53.2368 61.6447 49.7202 63.3011 45.8038C65.0175 41.746 65.8877 37.4385 65.8877 33.001C65.8877 28.5634 65.0175 24.2559 63.3011 20.1982C61.6448 16.2817 59.2742 12.7651 56.2551 9.74589C53.2361 6.72705 49.7194 4.35641 45.8028 2.69976C41.7452 0.983382 37.4377 0.113239 33 0.113239ZM33 61.1914C25.47 61.1914 18.3907 58.2592 13.0662 52.9347C7.74171 47.6101 4.80931 40.531 4.80931 33.001C4.80931 25.471 7.74159 18.3916 13.0662 13.0672C18.3907 7.74268 25.47 4.81028 33 4.81028C40.53 4.81028 47.6092 7.74268 52.9337 13.0672C58.2583 18.3918 61.1906 25.471 61.1906 33.001C61.1906 40.531 58.2583 47.6102 52.9337 52.9347C47.6092 58.2592 40.5299 61.1914 33 61.1914ZM33 4.92255C25.5 4.92255 18.4489 7.84327 13.1456 13.1465C7.84229 18.4499 4.92157 25.501 4.92157 33.001C4.92157 40.501 7.84229 47.5521 13.1456 52.8552C18.4488 58.1585 25.5 61.0792 33 61.0792C40.5 61.0792 47.5511 58.1585 52.8543 52.8552C58.1576 47.5521 61.0783 40.5009 61.0783 33.001C61.0783 25.501 58.1576 18.4498 52.8543 13.1465C47.551 7.84316 40.5 4.92255 33 4.92255Z" fill="#F2933B" fill-opacity="0.51"/>
<path d="M25.7071 44.9939C26.1581 45.445 26.7697 45.6981 27.4074 45.6981C28.0453 45.6981 28.6568 45.4449 29.1078 44.9939L49.6951 24.4067C50.6341 23.4677 50.6341 21.9452 49.6951 21.0061C48.756 20.067 47.2334 20.0669 46.2943 21.0061L27.4074 39.8931L19.7056 32.1911C18.7665 31.2519 17.244 31.2519 16.305 32.1911C15.3659 33.1302 15.3659 34.6527 16.305 35.5917L25.7071 44.9939Z" fill="#F2933B" fill-opacity="0.51"/>
<path d="M27.4074 45.7543C26.7501 45.7543 26.1321 45.4984 25.6674 45.0336L16.2652 35.6315C15.3058 34.6719 15.3058 33.1108 16.2652 32.1513C16.73 31.6865 17.348 31.4305 18.0053 31.4305C18.6626 31.4305 19.2804 31.6865 19.7453 32.1513L27.4075 39.8136L46.2547 20.9663C46.7194 20.5015 47.3374 20.2456 47.9947 20.2456C48.6519 20.2456 49.2699 20.5016 49.7348 20.9663C50.1997 21.4311 50.4556 22.0491 50.4556 22.7064C50.4556 23.3637 50.1997 23.9816 49.7348 24.4465L29.1475 45.0336C28.6828 45.4984 28.0648 45.7543 27.4074 45.7543ZM18.0053 31.5429C17.3779 31.5429 16.7882 31.7872 16.3447 32.2308C15.4291 33.1465 15.4291 34.6364 16.3447 35.5521L25.7469 44.9543C26.1904 45.3978 26.7801 45.6421 27.4074 45.6421C28.0349 45.6421 28.6246 45.3978 29.0681 44.9543L49.6553 24.3671C50.0989 23.9235 50.3432 23.3337 50.3432 22.7065C50.3432 22.0793 50.0989 21.4894 49.6553 21.0458C49.2118 20.6022 48.6219 20.358 47.9946 20.358C47.3673 20.358 46.7775 20.6023 46.3339 21.0458L27.4074 39.9724L19.6658 32.2308C19.2223 31.7872 18.6326 31.5429 18.0053 31.5429Z" fill="#F2933B" fill-opacity="0.51"/>
</g>
<defs>
<clipPath id="clip0">
<rect width="66" height="66" fill="white"/>
</clipPath>
</defs>
</svg>
