<svg xmlns="http://www.w3.org/2000/svg" xmlns:xlink="http://www.w3.org/1999/xlink" version="1.1" x="0px" y="0px" viewBox="0 0 52 65" enable-background="new 0 0 52 52" xml:space="preserve"><g><g><path d="M30.5141792,13h-5.5V7.5c0-3.032692,2.4673004-5.5,5.5-5.5c3.032711,0,5.5,2.467308,5.5,5.5    C36.0141792,10.5327082,33.5468903,13,30.5141792,13z M27.0141792,11h3.5c1.9296799,0,3.5-1.5702915,3.5-3.5    c0-1.9296918-1.5703201-3.5-3.5-3.5c-1.9296989,0-3.5,1.5703082-3.5,3.5V11z"/></g><g><path d="M27.0141792,13h-5.5c-3.0326996,0-5.5-2.4672918-5.5-5.5c0-3.032692,2.4673004-5.5,5.5-5.5s5.5,2.467308,5.5,5.5V13z     M21.5141792,4c-1.9296989,0-3.5,1.5703082-3.5,3.5c0,1.9297085,1.5703011,3.5,3.5,3.5h3.5V7.5    C25.0141792,5.5703082,23.4438801,4,21.5141792,4z"/></g><g><path d="M50.0000191,22H1.99998V11h48.0000381V22z M3.99998,20h44.0000381v-7H3.99998V20z"/></g><g><path d="M48.0141792,50H3.9858799V20h44.0282974V50z M5.9858799,48h40.0282974V22H5.9858799V48z"/></g><g><path d="M30.9999809,50h-10V11h10V50z M22.9999809,48h6V13h-6V48z"/></g></g><text x="0" y="67" fill="#000000" font-size="5px" font-weight="bold" font-family="'Helvetica Neue', Helvetica, Arial-Unicode, Arial, Sans-serif">Created by Graphic Tigers</text><text x="0" y="72" fill="#000000" font-size="5px" font-weight="bold" font-family="'Helvetica Neue', Helvetica, Arial-Unicode, Arial, Sans-serif">from the Noun Project</text></svg>