<svg width="43" height="36" viewBox="0 0 43 36" fill="none" xmlns="http://www.w3.org/2000/svg">
<path d="M41.656 9.08125H37.1465C39.6109 7.50471 40.1578 4.94069 38.2551 2.94333C36.8897 1.51544 34.5502 0.663086 31.9973 0.663086C30.5984 0.663086 29.2333 0.925606 28.0494 1.42282C25.4453 2.5118 22.6597 6.67194 21.5014 8.55273C20.3416 6.67194 17.5549 2.5109 14.9533 1.42372C13.7667 0.926379 12.4029 0.663988 11.0041 0.663988C8.45097 0.663988 6.11012 1.51634 4.74494 2.94513C2.8463 4.93799 3.39183 7.50033 5.85078 9.08125H1.34377C0.601946 9.08125 0 9.47889 0 9.97096V17.5217C0 18.0136 0.601946 18.4114 1.34377 18.4114H2.08424V34.5717C2.08424 35.0636 2.68482 35.4614 3.42802 35.4614H16.5819H26.4181H39.572C40.315 35.4614 40.9158 35.0638 40.9158 34.5717V18.4114H41.6562C42.3992 18.4114 43 18.0138 43 17.5217V9.97096C42.9998 9.47902 42.399 9.08125 41.656 9.08125ZM40.3123 16.6321H39.5718H27.7617V10.8607H40.3123V16.6321ZM25.0743 10.8607V16.6321H17.9257V10.8607H25.0743ZM29.4844 2.92555C30.2397 2.6097 31.1076 2.4425 31.9959 2.4425C33.6231 2.4425 35.1134 2.98519 35.9829 3.89448C37.3696 5.35083 36.7138 7.28058 34.5183 8.19785C34.056 8.39184 32.4072 8.84372 27.0994 8.84372C26.0405 8.84372 25.0488 8.82504 24.2533 8.80275C25.7179 6.50925 27.966 3.56085 29.4844 2.92555ZM7.0144 3.89448C7.88385 2.98519 9.37529 2.4425 11.0025 2.4425C11.8907 2.4425 12.7601 2.6097 13.5154 2.92735C15.0325 3.56085 17.2805 6.51015 18.7465 8.80288C17.9444 8.82517 16.9459 8.84475 15.8749 8.84475H15.8735C10.5833 8.84475 8.93988 8.39545 8.48035 8.20326C6.28599 7.28148 5.62899 5.34903 7.0144 3.89448ZM2.68755 10.8607H15.2381V16.6321H3.42782H2.68735V10.8607H2.68755ZM4.7716 18.4114H15.2379V33.682H4.7716V18.4114ZM17.9255 33.682V18.4114H25.0741V33.682H17.9255ZM38.228 33.682H27.7617V18.4114H38.228V33.682Z" fill="#494848"/>
</svg>
