<svg xmlns="http://www.w3.org/2000/svg" xmlns:xlink="http://www.w3.org/1999/xlink" version="1.1" x="0px" y="0px" viewBox="0 0 60 75" enable-background="new 0 0 60 60" xml:space="preserve"><g><rect x="9.5999355" y="24.4978275" fill="none" stroke="#000000" stroke-width="2" stroke-linecap="round" stroke-linejoin="round" stroke-miterlimit="10" width="40.8096008" height="29.5021725"/><rect x="7.2912064" y="15.3480349" fill="none" stroke="#000000" stroke-width="2" stroke-linecap="round" stroke-linejoin="round" stroke-miterlimit="10" width="45.4175873" height="9.1497927"/><rect x="25.4298382" y="24.4978275" fill="none" stroke="#000000" stroke-width="2" stroke-linecap="round" stroke-linejoin="round" stroke-miterlimit="10" width="9.1403217" height="29.5021725"/><g><path fill="none" stroke="#000000" stroke-width="2" stroke-linecap="round" stroke-linejoin="round" stroke-miterlimit="10" d="    M22.9304752,6.0415816c-1.5377884-0.1665306-2.8368912,0.1770139-3.6985912,0.8536196    c-0.861618,0.687089-1.2991009,1.7072387-1.0870342,2.9147592c0.1988773,1.2075844,1.0207691,2.3630676,2.1608009,3.2479477    c1.1268444,0.9056559,2.5982857,1.5302248,4.135994,1.6967554l5.5544395,0.5933714l-0.7556248-4.3513308    C28.8295135,8.59202,25.9927025,6.3642859,22.9304752,6.0415816z"/><path fill="none" stroke="#000000" stroke-width="2" stroke-linecap="round" stroke-linejoin="round" stroke-miterlimit="10" d="    M40.7735519,6.8952012c-0.861618-0.6766057-2.1608009-1.0201502-3.6985092-0.8536196    c-3.0754967,0.3227043-5.8991184,2.5504384-6.3233337,4.9551225l-0.7556248,4.3513308l5.567709-0.5933714    c1.5245209-0.1665306,2.9959641-0.7910995,4.135994-1.6967554c1.1268425-0.8848801,1.9487343-2.0403633,2.1608009-3.2479477    C42.0594673,8.6024399,41.6219826,7.5822902,40.7735519,6.8952012z"/></g></g><text x="0" y="75" fill="#000000" font-size="5px" font-weight="bold" font-family="'Helvetica Neue', Helvetica, Arial-Unicode, Arial, Sans-serif">Created by Graphic Tigers</text><text x="0" y="80" fill="#000000" font-size="5px" font-weight="bold" font-family="'Helvetica Neue', Helvetica, Arial-Unicode, Arial, Sans-serif">from the Noun Project</text></svg>