<svg width="19" height="20" viewBox="0 0 19 20" fill="none" xmlns="http://www.w3.org/2000/svg">
<path d="M17.7069 0.457787L1.35187 0.470966C1.11681 0.471155 0.891496 0.610402 0.72549 0.858076C0.559483 1.10575 0.466386 1.44156 0.466679 1.79163C0.466971 2.1417 0.560629 2.47736 0.727049 2.72476C0.893468 2.97217 1.11902 3.11105 1.35408 3.11086L17.7091 3.09769C17.9441 3.0975 18.1695 2.95825 18.3355 2.71058C18.5014 2.4629 18.5946 2.12709 18.5943 1.77702C18.594 1.42695 18.5003 1.09129 18.334 0.843887C18.1675 0.596481 17.9419 0.457597 17.7069 0.457787Z" fill="#494848"/>
<path d="M17.714 8.84259L1.35895 8.8555C1.12389 8.85569 0.898578 8.99493 0.732575 9.24261C0.566572 9.49026 0.473479 9.82607 0.473776 10.1761C0.474073 10.5262 0.567735 10.8619 0.734159 11.1093C0.900582 11.3567 1.12613 11.4956 1.36119 11.4954L17.7162 11.4825C17.9513 11.4823 18.1766 11.3431 18.3427 11.0954C18.5086 10.8477 18.6017 10.5119 18.6014 10.1618C18.6011 9.81176 18.5074 9.47609 18.3411 9.22871C18.1746 8.98129 17.949 8.8424 17.714 8.84259Z" fill="#494848"/>
<path d="M18.6083 18.5469C18.608 18.1968 18.5143 17.8611 18.348 17.6137C18.1815 17.3663 17.9559 17.2274 17.7208 17.2276L1.36579 17.2405C1.13073 17.2407 0.905415 17.3799 0.739412 17.6276C0.573408 17.8753 0.480315 18.2111 0.480612 18.5612C0.480909 18.9112 0.574572 19.2469 0.740996 19.4943C0.907418 19.7417 1.13297 19.8806 1.36803 19.8804L17.7231 19.8675C17.9581 19.8673 18.1835 19.7281 18.3495 19.4804C18.5154 19.2327 18.6086 18.8969 18.6083 18.5469Z" fill="#494848"/>
</svg>
