<svg width="61" height="61" viewBox="0 0 61 61" fill="none" xmlns="http://www.w3.org/2000/svg">
<path fill-rule="evenodd" clip-rule="evenodd" d="M30.0808 0.257812C13.5123 0.257812 0.0808105 13.6893 0.0808105 30.2578C0.0808105 46.8264 13.5123 60.2578 30.0808 60.2578C46.6494 60.2578 60.0808 46.8264 60.0808 30.2578C60.0808 13.6893 46.6494 0.257812 30.0808 0.257812ZM23.4849 14.3532C25.1916 14.2755 25.7369 14.2565 30.0823 14.2565H30.0773C34.424 14.2565 34.9674 14.2755 36.6741 14.3532C38.3774 14.4312 39.5407 14.7009 40.5608 15.0966C41.6141 15.5049 42.5041 16.0516 43.3941 16.9416C44.2841 17.8309 44.8308 18.7236 45.2408 19.7759C45.6341 20.7933 45.9041 21.956 45.9841 23.6593C46.0608 25.366 46.0808 25.9113 46.0808 30.2567C46.0808 34.6021 46.0608 35.1461 45.9841 36.8528C45.9041 38.5555 45.6341 39.7185 45.2408 40.7362C44.8308 41.7882 44.2841 42.6808 43.3941 43.5702C42.5051 44.4602 41.6138 45.0082 40.5618 45.4169C39.5437 45.8125 38.3797 46.0822 36.6764 46.1602C34.9697 46.2379 34.426 46.2569 30.0803 46.2569C25.7353 46.2569 25.1903 46.2379 23.4836 46.1602C21.7806 46.0822 20.6176 45.8125 19.5995 45.4169C18.5479 45.0082 17.6552 44.4602 16.7662 43.5702C15.8765 42.6808 15.3298 41.7882 14.9208 40.7358C14.5255 39.7185 14.2558 38.5558 14.1775 36.8525C14.1002 35.1458 14.0808 34.6021 14.0808 30.2567C14.0808 25.9113 14.1008 25.3657 14.1772 23.659C14.2538 21.9563 14.5238 20.7933 14.9205 19.7756C15.3305 18.7236 15.8772 17.8309 16.7672 16.9416C17.6565 16.0519 18.5492 15.5052 19.6015 15.0966C20.6189 14.7009 21.7816 14.4312 23.4849 14.3532Z" fill="white"/>
<path fill-rule="evenodd" clip-rule="evenodd" d="M28.6472 17.1415C28.9259 17.141 29.2257 17.1411 29.5493 17.1413L30.0825 17.1415C34.3546 17.1415 34.861 17.1568 36.548 17.2335C38.108 17.3048 38.9547 17.5654 39.5187 17.7844C40.2654 18.0744 40.7977 18.4211 41.3574 18.9811C41.9174 19.5411 42.2641 20.0744 42.5548 20.8211C42.7738 21.3844 43.0348 22.2311 43.1058 23.7911C43.1824 25.4777 43.1991 25.9844 43.1991 30.2544C43.1991 34.5244 43.1824 35.031 43.1058 36.7177C43.0344 38.2777 42.7738 39.1243 42.5548 39.6877C42.2647 40.4343 41.9174 40.966 41.3574 41.5256C40.7974 42.0856 40.2657 42.4323 39.5187 42.7223C38.9554 42.9423 38.108 43.2023 36.548 43.2736C34.8613 43.3503 34.3546 43.367 30.0825 43.367C25.8101 43.367 25.3038 43.3503 23.6171 43.2736C22.0571 43.2016 21.2104 42.941 20.6461 42.722C19.8994 42.432 19.366 42.0853 18.806 41.5253C18.246 40.9653 17.8994 40.4333 17.6087 39.6863C17.3897 39.123 17.1287 38.2763 17.0577 36.7163C16.981 35.0297 16.9657 34.523 16.9657 30.2504C16.9657 25.9777 16.981 25.4737 17.0577 23.7871C17.129 22.2271 17.3897 21.3804 17.6087 20.8164C17.8987 20.0698 18.246 19.5364 18.806 18.9764C19.366 18.4164 19.8994 18.0698 20.6461 17.7791C21.2101 17.5591 22.0571 17.2991 23.6171 17.2275C25.0931 17.1608 25.6651 17.1408 28.6472 17.1375V17.1415ZM38.6229 19.7975C37.5629 19.7975 36.7029 20.6564 36.7029 21.7167C36.7029 22.7766 37.5629 23.6365 38.6229 23.6365C39.683 23.6365 40.543 22.7766 40.543 21.7167C40.543 20.6568 39.683 19.7968 38.6229 19.7968V19.7975ZM21.8655 30.2568C21.8655 25.719 25.5446 22.0399 30.0824 22.0399H30.0821C34.6199 22.0399 38.298 25.719 38.298 30.2568C38.298 34.7946 34.6202 38.472 30.0824 38.472C25.5446 38.472 21.8655 34.7946 21.8655 30.2568Z" fill="white"/>
<path fill-rule="evenodd" clip-rule="evenodd" d="M30.0823 24.925C33.0277 24.925 35.4157 27.3128 35.4157 30.2585C35.4157 33.2038 33.0277 35.5919 30.0823 35.5919C27.1365 35.5919 24.7488 33.2038 24.7488 30.2585C24.7488 27.3128 27.1365 24.925 30.0823 24.925V24.925Z" fill="white"/>
</svg>
