<svg width="48" height="48" viewBox="0 0 48 48" fill="none" xmlns="http://www.w3.org/2000/svg">
<path d="M41.7718 15.3307L28.749 15.3099C29.6089 11.6118 29.3389 7.7344 27.975 4.19707C27.4357 3.03806 26.6891 1.99148 25.7736 1.11084C25.0407 0.543283 24.1723 0.185198 23.2581 0.0735367C22.344 -0.0381251 21.4171 0.100681 20.5731 0.47563C19.7204 0.890624 19.0092 1.55618 18.5312 2.38652C18.0532 3.21687 17.8303 4.17396 17.8912 5.13446L17.885 9.01675C17.7439 10.7315 16.9729 12.329 15.7261 13.4904C14.4792 14.6517 12.8482 15.2914 11.1587 15.2818L9.29769 15.2788L9.29769 15.2811L9.287 15.2788L3.76524 15.27C2.78043 15.2696 1.83565 15.6671 1.13815 16.3752C0.440654 17.0833 0.0473851 18.0442 0.044613 19.0472L0.013032 38.8251C0.0125035 39.8281 0.40267 40.7903 1.09793 41.5007C1.79318 42.2111 2.73674 42.6115 3.72158 42.6142L9.24334 42.623C9.71511 42.62 10.1819 42.5246 10.6182 42.3418L10.5571 42.5372L21.4328 46.0626C23.4282 46.7112 25.5098 47.0422 27.6043 47.044L36.513 47.0582C37.3945 47.0595 38.2623 46.8359 39.0372 46.4078C39.8121 45.9797 40.4694 45.3608 40.9491 44.6076C41.4288 43.8543 41.7156 42.9907 41.7835 42.0956C41.8513 41.2004 41.6979 40.3023 41.3374 39.483C41.9934 39.1448 42.5728 38.6705 43.0382 38.0907C43.5035 37.5108 43.8446 36.8382 44.0395 36.116C44.2344 35.3939 44.2788 34.6382 44.1698 33.8976C44.0608 33.157 43.8009 32.4478 43.4067 31.8156C44.3333 31.026 44.9655 29.9363 45.1975 28.7287C45.4294 27.5211 45.247 26.2691 44.6808 25.1822C45.6251 24.5448 46.3429 23.6147 46.728 22.5295C47.113 21.4444 47.1449 20.2618 46.8188 19.1569C46.4927 18.0519 45.826 17.0832 44.9174 16.3941C44.0088 15.7051 42.9065 15.3322 41.7736 15.3307L41.7718 15.3307ZM9.27813 38.8399L9.24933 38.8691L3.69887 38.8309L3.75925 19.0239L9.30971 19.062L9.27813 38.8399ZM41.7606 22.3253L40.0257 22.3226C39.5369 22.3218 39.0678 22.5188 38.7217 22.8702C38.3755 23.2217 38.1806 23.6988 38.1798 24.1966C38.179 24.6944 38.3724 25.1721 38.7174 25.5246C39.0625 25.8772 39.5309 26.0757 40.0197 26.0765C40.4379 26.0836 40.8366 26.258 41.1297 26.562C41.4227 26.866 41.5866 27.2752 41.5859 27.7012C41.5852 28.1272 41.42 28.5359 41.126 28.839C40.832 29.142 40.4328 29.3151 40.0145 29.321L38.96 29.3193C38.4712 29.3185 38.0021 29.5155 37.656 29.8669C37.3098 30.2184 37.1149 30.6955 37.1141 31.1933C37.1133 31.6911 37.3067 32.1688 37.6517 32.5214C37.9968 32.8739 38.4652 33.0724 38.954 33.0732C39.3759 33.0739 39.7803 33.2452 40.0781 33.5495C40.376 33.8538 40.5429 34.2662 40.5422 34.6959C40.5415 35.1256 40.3733 35.5374 40.0745 35.8408C39.7756 36.1442 39.3707 36.3142 38.9488 36.3136L36.5302 36.3097C36.0414 36.3089 35.5723 36.5059 35.2262 36.8574C34.88 37.2088 34.6851 37.6859 34.6843 38.1837C34.6835 38.6815 34.8769 39.1592 35.2219 39.5118C35.567 39.8643 36.0354 40.0628 36.5242 40.0636C36.9419 40.0707 37.3402 40.2449 37.6329 40.5486C37.9256 40.8522 38.0892 41.2609 38.0886 41.6865C38.0879 42.112 37.9229 42.5202 37.6292 42.8229C37.3356 43.1256 36.9368 43.2985 36.519 43.3043L27.6103 43.2901C25.8944 43.2887 24.189 43.0177 22.5543 42.4866L12.8655 39.3452C12.9103 39.1813 12.9437 39.0144 12.9654 38.8457L12.997 19.0679C12.9971 18.9928 12.9604 18.9271 12.9542 18.8516C15.276 18.4599 17.3965 17.2717 18.964 15.4839C20.5315 13.6961 21.4519 11.4163 21.5723 9.02263L21.5785 5.14035C21.5801 4.17597 21.9154 3.98956 22.0268 3.93118C22.2316 3.84092 22.4519 3.79301 22.6751 3.7902C22.8982 3.7874 23.1196 3.82977 23.3265 3.91486C23.8672 4.4562 24.3103 5.09005 24.6357 5.78752C25.8803 9.21146 25.8306 12.9844 24.4964 16.3733C24.3622 16.6594 24.3013 16.9755 24.3195 17.292C24.3377 17.6085 24.4343 17.9151 24.6003 18.1833C24.7662 18.4515 24.9962 18.6725 25.2688 18.8257C25.5413 18.9789 25.8475 19.0592 26.1588 19.0593L41.7658 19.0842C41.9768 19.0813 42.1862 19.1211 42.3819 19.2014C42.5776 19.2817 42.7557 19.4008 42.9058 19.5518C43.0559 19.7028 43.175 19.8828 43.2561 20.0811C43.3373 20.2795 43.3789 20.4923 43.3786 20.7072C43.3782 20.922 43.3359 21.1347 43.2541 21.3328C43.1723 21.5309 43.0527 21.7104 42.9021 21.861C42.7515 22.0115 42.5731 22.1301 42.3771 22.2097C42.1811 22.2894 41.9716 22.3286 41.7606 22.325L41.7606 22.3253Z" fill="#575252"/>
</svg>
