<svg width="63" height="57" viewBox="0 0 63 57" fill="none" xmlns="http://www.w3.org/2000/svg">
<path d="M53.9318 13.0668L37.3762 6.89189C36.7222 6.64641 35.7273 6.84249 35.1754 7.31363L8.41236 30.0138C8.06806 30.3062 7.88119 30.7172 7.89857 31.1428C7.91811 31.57 8.13974 31.9556 8.50801 32.2011L25.6914 43.6701C25.9456 43.8395 26.2508 43.9277 26.5735 43.9277C27.059 43.9277 27.525 43.7303 27.8531 43.3805L54.2914 15.1314C54.6129 14.7897 54.7575 14.3574 54.6857 13.9503C54.615 13.5418 54.3402 13.2175 53.9318 13.0668ZM27.3175 42.6251C27.0253 42.9346 26.4225 43.0187 26.0792 42.7919L8.89685 31.323C8.76428 31.235 8.7143 31.1428 8.71214 31.0908C8.70998 31.0389 8.75122 30.9427 8.87401 30.8386L35.6382 8.13842C35.8913 7.92225 36.3138 7.78073 36.7113 7.78073C36.8711 7.78073 37.0199 7.80474 37.1383 7.84884L53.6928 14.0237C53.7361 14.0398 53.7709 14.0571 53.7981 14.0731C53.8535 14.1079 53.873 14.2185 53.834 14.2773C53.8143 14.3066 53.7893 14.3387 53.7547 14.3747L27.3175 42.6251Z" fill="#494848"/>
<path d="M61.5282 7.87637L40.4896 0.744654C39.3175 0.33491 37.4686 0.73921 36.4781 1.60001L0.958679 32.3902C0.331863 32.9374 -0.0167599 33.7167 0.000620161 34.5308C0.00493677 34.7097 0.0299276 34.8858 0.0712762 35.0568C0.140796 35.3395 0.412288 36.1083 0.624142 36.7983L1.14123 38.4865C1.70613 40.3296 3.42778 42.709 5.0615 43.9101L21.0783 55.6579C21.8115 56.1971 22.6978 56.4812 23.6418 56.4812C24.929 56.4812 26.1705 55.9447 27.0494 55.0079L60.3768 19.5122C61.8552 17.9374 62.9979 15.1882 62.9783 13.2519L62.963 11.6798C62.9555 10.9432 62.9913 10.1558 62.9989 9.91811C63.0032 9.77534 62.9956 9.63257 62.9684 9.49106C62.8229 8.72516 62.2983 8.13664 61.5282 7.87637ZM25.9837 53.4972C25.4112 54.1045 24.5314 54.466 23.631 54.466C22.9869 54.466 22.3774 54.2779 21.9125 53.9376L5.89574 42.1897C4.93109 41.4824 3.87864 40.2066 3.21592 39.0135C2.87809 38.405 3.10403 38.1633 3.61237 38.5544L21.5301 52.3134C22.0233 52.6911 22.6186 52.8926 23.2518 52.8926C24.0947 52.8926 24.9062 52.5323 25.4797 51.9051L60.5309 13.608C60.9795 13.1183 61.3435 12.846 61.3456 12.9996L61.3489 13.2771C61.363 14.6223 60.4103 16.8271 59.31 18.0001L25.9837 53.4972ZM61.3249 9.98481C61.314 10.0141 61.288 10.0875 61.2489 10.1383C61.2283 10.165 61.2034 10.1943 61.174 10.2264L24.3968 50.4092C24.1361 50.6961 23.6907 50.871 23.2334 50.871C22.9053 50.871 22.6066 50.7828 22.3937 50.6186L1.92003 34.8978C1.88096 34.8671 1.8462 34.8365 1.81462 34.8058C1.75918 34.7497 1.7092 34.655 1.69398 34.6056L1.66683 34.5161C1.62764 34.344 1.72874 34.1771 1.90038 34.0263L37.4178 3.23619C37.8686 2.8478 38.6735 2.57426 39.3774 2.57426C39.6283 2.57426 39.864 2.61027 40.0563 2.67572L61.0959 9.81009C61.1513 9.82879 61.1979 9.84874 61.235 9.86744C61.3087 9.90219 61.3358 9.95551 61.3249 9.98481Z" fill="#494848"/>
<path d="M42.9182 6.35173L50.3753 9.05189C50.4144 9.06529 50.4524 9.07324 50.4905 9.07324C50.6664 9.07324 50.8293 8.93171 50.8804 8.71285C50.9445 8.44723 50.8208 8.171 50.6056 8.09228L43.1486 5.39213C42.9281 5.31201 42.7064 5.46555 42.6424 5.72851C42.5794 5.99399 42.7032 6.27301 42.9182 6.35173Z" fill="#494848"/>
</svg>
