<svg width="61" height="61" viewBox="0 0 61 61" fill="none" xmlns="http://www.w3.org/2000/svg">
<path fill-rule="evenodd" clip-rule="evenodd" d="M30.621 0.257812C14.0524 0.257812 0.620972 13.6893 0.620972 30.2578C0.620972 46.8264 14.0524 60.2578 30.621 60.2578C47.1895 60.2578 60.621 46.8264 60.621 30.2578C60.621 13.6893 47.1895 0.257812 30.621 0.257812ZM29.7856 25.6799L29.7227 24.6419C29.5338 21.9514 31.1916 19.494 33.8146 18.5407C34.7799 18.2017 36.4167 18.1593 37.4869 18.4559C37.9066 18.583 38.704 19.0067 39.2706 19.388L40.2988 20.0871L41.4319 19.727C42.0615 19.5363 42.9008 19.2186 43.2786 19.0067C43.6353 18.8161 43.9501 18.7101 43.9501 18.7737C43.9501 19.1338 43.1736 20.3625 42.5231 21.0405C41.6418 21.9938 41.8936 22.0785 43.6773 21.443C44.7475 21.0828 44.7685 21.0828 44.5586 21.4853C44.4327 21.6972 43.7822 22.4387 43.0897 23.1166C41.9146 24.2817 41.8516 24.4088 41.8516 25.3833C41.8516 26.8875 41.1382 30.0228 40.4247 31.7388C39.1027 34.9589 36.2698 38.2849 33.4369 39.9585C29.4499 42.31 24.1408 42.9031 19.6712 41.5261C18.1813 41.0601 15.6212 39.8737 15.6212 39.6619C15.6212 39.5983 16.3976 39.5136 17.3419 39.4924C19.3144 39.45 21.287 38.8992 22.9657 37.9247L24.0989 37.2468L22.7978 36.8019C20.9512 36.1664 19.2934 34.7046 18.8738 33.3276C18.7479 32.8827 18.7898 32.8616 19.9649 32.8616L21.182 32.8404L20.1538 32.3531C18.9367 31.7388 17.8245 30.7007 17.2789 29.6415C16.8802 28.8788 16.3766 26.951 16.5235 26.8027C16.5655 26.7392 17.0062 26.8663 17.5098 27.0357C18.9577 27.5654 19.1466 27.4383 18.3072 26.5485C16.7334 24.9385 16.2507 22.5446 17.0062 20.2778L17.3629 19.2609L18.7479 20.6379C21.5807 23.4131 24.9173 25.0656 28.7364 25.5528L29.7856 25.6799Z" fill="white"/>
</svg>
