<svg width="44" height="44" viewBox="0 0 44 44" fill="none" xmlns="http://www.w3.org/2000/svg">
<g clip-path="url(#clip0)">
<path d="M6.47011 37.5301C8.48611 39.546 10.8345 41.129 13.4502 42.2354C16.16 43.3815 19.0365 43.9626 22 43.9626C24.9634 43.9626 27.84 43.3815 30.5498 42.2354C33.1654 41.129 35.5139 39.5459 37.53 37.5301C39.5459 35.514 41.1291 33.1656 42.2353 30.5499C43.3814 27.8401 43.9627 24.9635 43.9627 22.0002C43.9627 19.0366 43.3814 16.1601 42.2353 13.4504C41.1291 10.8347 39.5458 8.48629 37.53 6.47029C35.5139 4.45429 33.1655 2.87117 30.5498 1.76486C27.8399 0.618666 24.9634 0.0375977 22 0.0375977C19.0365 0.0375977 16.16 0.618741 13.4502 1.76486C10.8345 2.87117 8.48611 4.45436 6.47011 6.47029C4.4541 8.48622 2.87098 10.8347 1.7646 13.4503C0.618558 16.1601 0.0374146 19.0366 0.0374146 22.0002C0.0374146 24.9636 0.618558 27.8401 1.76468 30.5499C2.87098 33.1656 4.45418 35.514 6.47011 37.5301ZM22 3.2438C32.3589 3.2438 40.7563 11.6413 40.7563 22.0002C40.7563 32.359 32.3589 40.7564 22 40.7564C11.6411 40.7564 3.24362 32.359 3.24362 22.0002C3.24362 11.6413 11.6411 3.2438 22 3.2438Z" fill="#F2933B" fill-opacity="0.51"/>
<path d="M22 44.0008C19.0313 44.0008 16.1499 43.4187 13.4356 42.2707C10.8154 41.1624 8.46299 39.5766 6.44369 37.5573C4.42425 35.5378 2.83843 33.1853 1.73026 30.5652C0.582116 27.8508 0 24.9693 0 22.001C0 19.0325 0.582116 16.151 1.73018 13.4365C2.83836 10.8165 4.42425 8.46404 6.44362 6.4446C8.46299 4.42515 10.8155 2.83934 13.4355 1.73116C16.15 0.583093 19.0315 0.000976562 21.9999 0.000976562C24.9686 0.000976562 27.8501 0.583093 30.5642 1.73123C33.1844 2.83941 35.5368 4.4253 37.5563 6.44467C39.5758 8.46427 41.1616 10.8167 42.2697 13.4366C43.4179 16.1511 44 19.0325 44 22.001C44 24.9693 43.4179 27.8508 42.2697 30.5653C41.1616 33.1853 39.5759 35.5377 37.5563 37.5574C35.5369 39.5766 33.1844 41.1624 30.5642 42.2708C27.8501 43.4187 24.9686 44.0008 22 44.0008ZM22 0.075818C19.0416 0.075818 16.17 0.655914 13.4648 1.80009C10.8536 2.90452 8.50917 4.48495 6.49661 6.49751C4.48397 8.51014 2.90355 10.8546 1.79911 13.4656C0.654937 16.1709 0.0748414 19.0426 0.0748414 22.001C0.0748414 24.9592 0.654937 27.831 1.79911 30.5362C2.90355 33.1473 4.48397 35.4917 6.49661 37.5044C8.50909 39.5168 10.8535 41.0972 13.4648 42.2018C16.1697 43.3459 19.0414 43.926 22 43.926C24.9586 43.926 27.8302 43.3459 30.5352 42.2017C33.1464 41.0972 35.4909 39.5168 37.5034 37.5044C39.5161 35.4915 41.0965 33.1471 42.2007 30.5362C43.345 27.831 43.9252 24.9593 43.9252 22.001C43.9252 19.0426 43.345 16.1709 42.2007 13.4658C41.0965 10.8548 39.5161 8.51037 37.5034 6.49758C35.4908 4.48502 33.1463 2.9046 30.5352 1.80016C27.8301 0.655914 24.9585 0.075818 22 0.075818ZM22 40.7946C16.98 40.7946 12.2604 38.8398 8.71079 35.2901C5.16114 31.7404 3.20621 27.021 3.20621 22.001C3.20621 16.981 5.16106 12.2614 8.71079 8.71177C12.2604 5.16211 16.98 3.20718 22 3.20718C27.02 3.20718 31.7395 5.16211 35.2891 8.71177C38.8389 12.2615 40.7937 16.981 40.7937 22.001C40.7937 27.021 38.8389 31.7405 35.2891 35.2901C31.7395 38.8398 27.0199 40.7946 22 40.7946ZM22 3.28202C17 3.28202 12.2993 5.22917 8.7637 8.76468C5.22819 12.3003 3.28105 17.001 3.28105 22.001C3.28105 27.001 5.22819 31.7017 8.7637 35.2371C12.2992 38.7726 17 40.7198 22 40.7198C27 40.7198 31.7007 38.7726 35.2362 35.2371C38.7717 31.7017 40.7189 27.0009 40.7189 22.001C40.7189 17.001 38.7717 12.3002 35.2362 8.76468C31.7006 5.2291 27 3.28202 22 3.28202Z" fill="#F2933B" fill-opacity="0.51"/>
<path d="M17.1381 29.9959C17.4387 30.2966 17.8465 30.4653 18.2717 30.4653C18.6969 30.4653 19.1046 30.2965 19.4052 29.9959L33.1301 16.2711C33.7561 15.645 33.7561 14.63 33.1301 14.004C32.504 13.3779 31.4889 13.3779 30.8629 14.004L18.2717 26.5953L13.1371 21.4607C12.511 20.8345 11.496 20.8345 10.87 21.4607C10.2439 22.0867 10.2439 23.1017 10.87 23.7277L17.1381 29.9959Z" fill="#F2933B" fill-opacity="0.51"/>
<path d="M18.2716 30.5029C17.8334 30.5029 17.4214 30.3323 17.1116 30.0224L10.8435 23.7543C10.2039 23.1146 10.2039 22.0739 10.8435 21.4342C11.1533 21.1243 11.5653 20.9537 12.0035 20.9537C12.4417 20.9537 12.8536 21.1243 13.1635 21.4342L18.2717 26.5424L30.8364 13.9776C31.1463 13.6676 31.5583 13.4971 31.9965 13.4971C32.4346 13.4971 32.8466 13.6677 33.1565 13.9776C33.4664 14.2874 33.6371 14.6994 33.6371 15.1376C33.6371 15.5758 33.4664 15.9877 33.1565 16.2976L19.4317 30.0224C19.1219 30.3323 18.7099 30.5029 18.2716 30.5029ZM12.0035 21.0286C11.5853 21.0286 11.1922 21.1914 10.8965 21.4872C10.286 22.0977 10.286 23.0909 10.8965 23.7014L17.1646 29.9695C17.4603 30.2652 17.8534 30.4281 18.2716 30.4281C18.6899 30.4281 19.0831 30.2652 19.3788 29.9695L33.1035 16.2447C33.3992 15.949 33.5622 15.5558 33.5622 15.1377C33.5622 14.7195 33.3992 14.3262 33.1035 14.0305C32.8078 13.7348 32.4146 13.572 31.9964 13.572C31.5782 13.572 31.185 13.7348 30.8893 14.0305L18.2716 26.6483L13.1106 21.4872C12.8149 21.1914 12.4217 21.0286 12.0035 21.0286Z" fill="#F2933B" fill-opacity="0.51"/>
</g>
<defs>
<clipPath id="clip0">
<rect width="44" height="44" fill="white"/>
</clipPath>
</defs>
</svg>
