<svg width="24" height="24" viewBox="0 0 24 24" fill="none" xmlns="http://www.w3.org/2000/svg">
<g clip-path="url(#clip0)">
<path d="M3.52974 20.4714C4.62937 21.571 5.91031 22.4345 7.33706 23.038C8.81512 23.6631 10.3841 23.9801 12.0006 23.9801C13.617 23.9801 15.1861 23.6631 16.6641 23.038C18.0908 22.4345 19.3718 21.571 20.4715 20.4714C21.5711 19.3718 22.4346 18.0908 23.038 16.6641C23.6632 15.186 23.9802 13.617 23.9802 12.0006C23.9802 10.3841 23.6632 8.81508 23.038 7.33706C22.4346 5.91031 21.571 4.62938 20.4715 3.52974C19.3718 2.4301 18.0909 1.56658 16.6641 0.96314C15.186 0.337943 13.617 0.0209961 12.0006 0.0209961C10.3841 0.0209961 8.81512 0.337983 7.33706 0.96314C5.91031 1.56658 4.62937 2.43014 3.52974 3.52974C2.4301 4.62933 1.56658 5.91031 0.963099 7.33701C0.337983 8.81508 0.0209961 10.3841 0.0209961 12.0006C0.0209961 13.617 0.337983 15.186 0.96314 16.6641C1.56658 18.0908 2.43014 19.3718 3.52974 20.4714ZM12.0006 1.76984C17.6509 1.76984 22.2313 6.35029 22.2313 12.0006C22.2313 17.6508 17.6509 22.2313 12.0006 22.2313C6.35029 22.2313 1.76984 17.6508 1.76984 12.0006C1.76984 6.35029 6.35029 1.76984 12.0006 1.76984Z" fill="#F2933B" fill-opacity="0.51"/>
<path d="M12 24.0009C10.3807 24.0009 8.80902 23.6834 7.32851 23.0572C5.89931 22.4527 4.61618 21.5877 3.51474 20.4862C2.41323 19.3847 1.54824 18.1015 0.943777 16.6724C0.317518 15.1918 0 13.6201 0 12.001C0 10.3818 0.317518 8.81008 0.943736 7.32944C1.5482 5.90033 2.41323 4.61719 3.5147 3.51568C4.61618 2.41416 5.89935 1.54917 7.32847 0.944713C8.8091 0.318495 10.3808 0.000976562 12 0.000976562C13.6192 0.000976562 15.1909 0.318495 16.6714 0.944754C18.1006 1.54921 19.3837 2.41424 20.4853 3.51572C21.5868 4.61732 22.4518 5.90045 23.0562 7.32949C23.6825 8.81012 24 10.3818 24 12.001C24 13.6201 23.6825 15.1918 23.0562 16.6724C22.4518 18.1015 21.5869 19.3846 20.4853 20.4863C19.3838 21.5877 18.1006 22.4527 16.6714 23.0572C15.1909 23.6834 13.6192 24.0009 12 24.0009ZM12 0.0417991C10.3863 0.0417991 8.82 0.358215 7.34443 0.982311C5.92017 1.58473 4.64136 2.44678 3.5436 3.54454C2.4458 4.64234 1.58375 5.92111 0.981334 7.34533C0.357238 8.82094 0.0408226 10.3873 0.0408226 12.001C0.0408226 13.6146 0.357238 15.181 0.981334 16.6565C1.58375 18.0808 2.4458 19.3596 3.5436 20.4574C4.64132 21.5551 5.92009 22.4171 7.34443 23.0196C8.81984 23.6437 10.3862 23.9601 12 23.9601C13.6138 23.9601 15.1801 23.6437 16.6556 23.0196C18.0799 22.4171 19.3587 21.5551 20.4564 20.4574C21.5542 19.3594 22.4162 18.0807 23.0186 16.6565C23.6427 15.181 23.9592 13.6146 23.9592 12.001C23.9592 10.3873 23.6427 8.82094 23.0186 7.34541C22.4163 5.92123 21.5542 4.64246 20.4564 3.54458C19.3586 2.44682 18.0798 1.58477 16.6556 0.982351C15.1801 0.358215 13.6137 0.0417991 12 0.0417991ZM12 22.2521C9.26183 22.2521 6.68751 21.1858 4.75134 19.2496C2.81517 17.3134 1.74884 14.7392 1.74884 12.001C1.74884 9.2628 2.81512 6.68849 4.75134 4.75232C6.68751 2.81614 9.26183 1.74982 12 1.74982C14.7382 1.74982 17.3124 2.81614 19.2486 4.75232C21.1848 6.68853 22.2511 9.2628 22.2511 12.001C22.2511 14.7392 21.1848 17.3134 19.2486 19.2496C17.3124 21.1858 14.7381 22.2521 12 22.2521ZM12 1.79064C9.27273 1.79064 6.7087 2.85272 4.7802 4.78118C2.85174 6.70968 1.78966 9.2737 1.78966 12.001C1.78966 14.7283 2.85174 17.2923 4.7802 19.2207C6.70866 21.1492 9.27273 22.2112 12 22.2112C14.7273 22.2112 17.2913 21.1492 19.2198 19.2207C21.1482 17.2923 22.2103 14.7282 22.2103 12.001C22.2103 9.2737 21.1482 6.70964 19.2198 4.78118C17.2913 2.85268 14.7273 1.79064 12 1.79064Z" fill="#F2933B" fill-opacity="0.51"/>
<path d="M9.34867 16.362C9.51265 16.526 9.73505 16.6181 9.96697 16.6181C10.1989 16.6181 10.4213 16.526 10.5853 16.362L18.0716 8.87578C18.413 8.5343 18.413 7.98066 18.0716 7.63918C17.7301 7.2977 17.1764 7.29766 16.8349 7.63918L9.96697 14.5072L7.16629 11.7065C6.82481 11.3649 6.27118 11.3649 5.92969 11.7065C5.58821 12.0479 5.58821 12.6016 5.92969 12.9431L9.34867 16.362Z" fill="#F2933B" fill-opacity="0.51"/>
<path d="M9.96633 16.638C9.72731 16.638 9.50258 16.5449 9.33358 16.3759L5.91461 12.9569C5.56574 12.608 5.56574 12.0403 5.91461 11.6914C6.08361 11.5224 6.30834 11.4293 6.54736 11.4293C6.78637 11.4293 7.01106 11.5224 7.18011 11.6914L9.96637 14.4777L16.8199 7.62414C16.9889 7.4551 17.2136 7.36206 17.4526 7.36206C17.6916 7.36206 17.9163 7.45514 18.0854 7.62414C18.2544 7.79315 18.3475 8.01787 18.3475 8.25689C18.3475 8.49591 18.2544 8.72059 18.0854 8.88964L10.5991 16.3759C10.4301 16.5449 10.2054 16.638 9.96633 16.638ZM6.54736 11.4702C6.31924 11.4702 6.1048 11.559 5.94351 11.7203C5.61056 12.0533 5.61056 12.5951 5.94351 12.9281L9.36248 16.347C9.52377 16.5083 9.73821 16.5971 9.96633 16.5971C10.1945 16.5971 10.4089 16.5083 10.5702 16.347L18.0565 8.86078C18.2178 8.69949 18.3066 8.48501 18.3066 8.25693C18.3066 8.02886 18.2178 7.81433 18.0565 7.65304C17.8952 7.49171 17.6807 7.40292 17.4526 7.40292C17.2245 7.40292 17.01 7.49175 16.8487 7.65304L9.96633 14.5354L7.1512 11.7203C6.98991 11.559 6.77547 11.4702 6.54736 11.4702Z" fill="#F2933B" fill-opacity="0.51"/>
</g>
<defs>
<clipPath id="clip0">
<rect width="24" height="24" fill="white"/>
</clipPath>
</defs>
</svg>
