<svg width="32" height="31" viewBox="0 0 32 31" fill="none" xmlns="http://www.w3.org/2000/svg">
<path d="M3.95559 20.8895L12.326 20.7295C11.8328 23.0708 12.0688 25.5099 13.0024 27.7203C13.3677 28.4433 13.8644 29.0927 14.467 29.6353C14.9472 29.9832 15.5111 30.1972 16.1005 30.2554C16.6898 30.3136 17.2833 30.2138 17.8197 29.9664C18.3611 29.6936 18.8075 29.2649 19.1013 28.7354C19.3951 28.2059 19.523 27.6 19.4684 26.9957L19.4098 24.5498C19.473 23.4676 19.9427 22.451 20.7254 21.7028C21.5081 20.9546 22.5461 20.5299 23.6321 20.5135L24.8283 20.4906L24.8282 20.4892L24.8351 20.4905L28.3842 20.4227C29.0172 20.4098 29.618 20.1469 30.0549 19.6915C30.4918 19.2361 30.7291 18.6255 30.7147 17.9936L30.4165 5.53319C30.4007 4.90128 30.1344 4.30025 29.6762 3.86197C29.2179 3.42368 28.605 3.18394 27.9719 3.19535L24.4228 3.26317C24.1197 3.2713 23.8212 3.33766 23.5437 3.45862L23.5798 3.33465L16.533 1.25819C15.2401 0.876122 13.8968 0.695244 12.5506 0.721943L6.82456 0.831367C6.25797 0.842299 5.70381 0.994711 5.21267 1.2747C4.72154 1.55468 4.30905 1.95332 4.01286 2.43424C3.71667 2.91515 3.5462 3.46303 3.51703 4.02786C3.48786 4.5927 3.6009 5.1565 3.84584 5.66782C3.4296 5.88962 3.06488 6.19612 2.77511 6.56762C2.48535 6.93912 2.27695 7.3674 2.16332 7.82493C2.04969 8.28247 2.03333 8.75912 2.11531 9.22426C2.19729 9.68941 2.37578 10.1327 2.63932 10.5258C2.05646 11.0355 1.66767 11.7305 1.53805 12.4943C1.40842 13.2581 1.54583 14.0445 1.92726 14.7217C1.33057 15.1358 0.884206 15.7313 0.654202 16.4201C0.424197 17.1089 0.422772 17.8543 0.650141 18.5461C0.87751 19.2379 1.32159 19.8393 1.91668 20.2613C2.51177 20.6834 3.22625 20.9036 3.9544 20.8895L3.95559 20.8895ZM24.4614 5.647L24.4794 5.62819L28.0475 5.57847L28.3276 18.0576L24.7596 18.1074L24.4614 5.647ZM3.85012 16.4827L4.96524 16.4614C5.2794 16.4554 5.57771 16.3251 5.79454 16.0991C6.01138 15.8731 6.12898 15.5699 6.12147 15.2563C6.11397 14.9427 5.98197 14.6443 5.75452 14.4267C5.52707 14.2092 5.2228 14.0904 4.90864 14.0964C4.63971 14.0975 4.38066 13.9929 4.18742 13.8053C3.99418 13.6176 3.88226 13.362 3.87584 13.0936C3.86942 12.8252 3.969 12.5656 4.15309 12.3707C4.33717 12.1759 4.59098 12.0615 4.85971 12.0523L5.53751 12.0394C5.85166 12.0334 6.14997 11.903 6.36681 11.677C6.58365 11.451 6.70125 11.1478 6.69374 10.8342C6.68623 10.5206 6.55424 10.2222 6.32678 10.0047C6.09933 9.78716 5.79506 9.66833 5.4809 9.67434C5.20972 9.67952 4.94707 9.57695 4.75074 9.38918C4.5544 9.20142 4.44046 8.94385 4.43398 8.67313C4.4275 8.40241 4.52902 8.14072 4.71619 7.94563C4.90336 7.75054 5.16086 7.63803 5.43204 7.63285L6.98663 7.60314C7.30079 7.59714 7.59909 7.46679 7.81593 7.24078C8.03276 7.01477 8.15037 6.71161 8.14286 6.39799C8.13535 6.08437 8.00335 5.78598 7.7759 5.56846C7.54845 5.35094 7.24418 5.23211 6.93002 5.23812C6.66141 5.23917 6.40266 5.13471 6.20964 4.94731C6.01663 4.7599 5.90484 4.50459 5.89843 4.2365C5.89201 3.96841 5.99148 3.70906 6.17535 3.51445C6.35922 3.31985 6.61274 3.2056 6.88116 3.19639L12.6072 3.08697C13.7101 3.06503 14.8106 3.21311 15.8698 3.52599L22.1476 5.37628C22.1214 5.48013 22.1026 5.58573 22.0914 5.69229L22.3896 18.1527C22.3907 18.2 22.4154 18.2409 22.4206 18.2883C20.9347 18.566 19.5909 19.3428 18.6122 20.4899C17.6335 21.637 17.0787 23.0855 17.0398 24.5951L17.0984 27.041C17.1129 27.6486 16.9004 27.7705 16.8297 27.8087C16.6996 27.8683 16.5587 27.9014 16.4154 27.9062C16.272 27.9109 16.129 27.8871 15.9947 27.8363C15.6384 27.5024 15.3434 27.109 15.1231 26.6739C14.268 24.5334 14.2391 22.1558 15.0421 20.003C15.1237 19.821 15.1578 19.6211 15.141 19.422C15.1242 19.2228 15.0572 19.0309 14.9462 18.8642C14.8352 18.6974 14.6838 18.5612 14.5062 18.4683C14.3285 18.3755 14.1304 18.3289 13.9303 18.333L3.89899 18.5247C3.76344 18.5294 3.62819 18.507 3.50111 18.4591C3.37402 18.4111 3.25765 18.3384 3.15875 18.2453C3.05985 18.1521 2.98041 18.0403 2.92505 17.9165C2.86969 17.7926 2.83951 17.6591 2.83627 17.5237C2.83303 17.3883 2.85679 17.2537 2.90618 17.1279C2.95556 17.002 3.02958 16.8873 3.12393 16.7904C3.21828 16.6936 3.33107 16.6165 3.45574 16.5637C3.58042 16.511 3.71448 16.4835 3.85013 16.483L3.85012 16.4827Z" fill="#575252"/>
</svg>
