<svg width="48" height="48" viewBox="0 0 48 48" fill="none" xmlns="http://www.w3.org/2000/svg">
<path d="M5.95617 32.6207L18.976 32.3423C18.2013 36.0592 18.5603 39.9293 20.0051 43.4344C20.571 44.5807 21.3413 45.6098 22.2769 46.4692C23.0226 47.0198 23.899 47.3578 24.8155 47.4484C25.732 47.5391 26.6555 47.379 27.4906 46.9848C28.3335 46.5503 29.0292 45.8686 29.488 45.0274C29.9468 44.1863 30.1477 43.2244 30.0647 42.2655L29.9817 38.3841C30.0834 36.6666 30.8175 35.0518 32.0373 33.8621C33.2571 32.6724 34.873 31.9954 36.5623 31.9662L38.4229 31.9264L38.4228 31.9241L38.4336 31.9262L43.9541 31.8081C44.9386 31.7858 45.874 31.3668 46.5551 30.6428C47.2361 29.9189 47.6072 28.9491 47.5869 27.9463L47.164 8.17303C47.1415 7.17025 46.7293 6.21721 46.018 5.52301C45.3066 4.82882 44.354 4.45016 43.3694 4.47012L37.8489 4.58818C37.3773 4.60198 36.9128 4.70817 36.4808 4.90093L36.5375 4.70409L25.5836 1.42953C23.5739 0.826997 21.4852 0.543898 19.3912 0.590221L10.4845 0.7807C9.60321 0.799716 8.74078 1.04322 7.97595 1.48899C7.2111 1.93476 6.56821 2.5686 6.10593 3.33267C5.64366 4.09674 5.37672 4.9667 5.32948 5.86316C5.28225 6.75962 5.45622 7.65402 5.83551 8.46476C5.18737 8.81796 4.61908 9.30544 4.16715 9.89585C3.71523 10.4863 3.38968 11.1665 3.21143 11.893C3.03318 12.6194 3.00618 13.3759 3.13216 14.1138C3.25814 14.8517 3.53431 15.5548 3.94292 16.1777C3.03467 16.9884 2.42766 18.0924 2.22353 19.3049C2.01939 20.5175 2.23053 21.765 2.82158 22.8386C1.89214 23.4976 1.1959 24.4439 0.835885 25.5376C0.475867 26.6314 0.471202 27.8143 0.822577 28.9115C1.17395 30.0087 1.8627 30.9618 2.78691 31.6298C3.71112 32.2978 4.8217 32.6453 5.95432 32.6208L5.95617 32.6207ZM37.9011 8.37112L37.9292 8.34123L43.479 8.25183L43.8738 28.055L38.3239 28.1444L37.9011 8.37112ZM5.80661 25.6277L7.54114 25.5906C8.0298 25.5801 8.49422 25.3724 8.83223 25.0131C9.17024 24.6538 9.35415 24.1723 9.34351 23.6746C9.33287 23.177 9.12854 22.7038 8.77548 22.3593C8.42242 22.0147 7.94954 21.8271 7.46088 21.8375C7.04258 21.84 6.63999 21.6748 6.34005 21.3776C6.0401 21.0804 5.86687 20.6751 5.85776 20.2492C5.84865 19.8233 6.0044 19.4109 6.29137 19.1012C6.57833 18.7914 6.97349 18.6092 7.39151 18.5938L8.44579 18.5712C8.93445 18.5608 9.39887 18.353 9.73688 17.9937C10.0749 17.6344 10.2588 17.153 10.2482 16.6553C10.2375 16.1576 10.0332 15.6844 9.68012 15.3399C9.32706 14.9954 8.85419 14.8077 8.36552 14.8182C7.94371 14.8272 7.53553 14.6652 7.23076 14.3678C6.926 14.0704 6.74963 13.662 6.74044 13.2324C6.73125 12.8028 6.89 12.3872 7.18177 12.077C7.47354 11.7669 7.87443 11.5875 8.29624 11.5785L10.7143 11.5268C11.203 11.5164 11.6674 11.3086 12.0054 10.9493C12.3434 10.59 12.5274 10.1086 12.5167 9.61088C12.5061 9.1132 12.3017 8.64004 11.9487 8.29552C11.5956 7.95099 11.1227 7.76331 10.6341 7.77376C10.2163 7.77622 9.81414 7.61121 9.51455 7.31437C9.21495 7.01754 9.04192 6.61269 9.03283 6.18726C9.02373 5.76183 9.17929 5.34995 9.46592 5.04058C9.75255 4.73121 10.1473 4.54916 10.5648 4.53375L19.4714 4.34327C21.1869 4.30522 22.8981 4.53699 24.5446 5.03041L34.303 7.94831C34.2619 8.11318 34.2324 8.28082 34.2146 8.44996L34.6375 28.2233C34.6391 28.2983 34.6773 28.3632 34.6852 28.4385C32.3731 28.8835 30.2804 30.1202 28.7544 31.9435C27.2284 33.7668 26.3607 36.0672 26.2952 38.463L26.3782 42.3444C26.3988 43.3085 26.0679 43.5026 25.9578 43.5635C25.7552 43.6585 25.536 43.7114 25.313 43.7194C25.09 43.7273 24.8677 43.69 24.6589 43.6097C24.1059 43.0809 23.6484 42.4574 23.307 41.7676C21.9841 38.3732 21.947 34.6 23.203 31.1814C23.3306 30.8923 23.3842 30.575 23.3588 30.2589C23.3333 29.9429 23.2297 29.6386 23.0576 29.3743C22.8855 29.11 22.6505 28.8943 22.3745 28.7474C22.0985 28.6006 21.7905 28.5273 21.4793 28.5343L5.87591 28.868C5.66506 28.8758 5.45476 28.8408 5.25725 28.7651C5.05975 28.6893 4.87897 28.5743 4.72546 28.4268C4.57194 28.2792 4.44875 28.1021 4.36304 27.9057C4.27734 27.7092 4.23084 27.4974 4.22624 27.2826C4.22165 27.0677 4.25905 26.8541 4.33628 26.6542C4.41351 26.4543 4.52901 26.2721 4.67609 26.1181C4.82315 25.9641 4.99884 25.8415 5.19293 25.7574C5.38702 25.6732 5.59563 25.6293 5.80662 25.628L5.80661 25.6277Z" fill="#575252"/>
</svg>
