<svg width="40" height="44" viewBox="0 0 40 44" fill="none" xmlns="http://www.w3.org/2000/svg">
<path d="M4.94235 29.3384L15.7461 29.0884C15.1032 32.4253 15.4011 35.8998 16.6 39.0465C17.0695 40.0756 17.7088 40.9995 18.4851 41.771C19.1039 42.2653 19.8311 42.5688 20.5916 42.6501C21.3521 42.7315 22.1184 42.5878 22.8113 42.2339C23.5108 41.8438 24.0881 41.2318 24.4688 40.4767C24.8495 39.7216 25.0161 38.858 24.9473 37.9971L24.8784 34.5126C24.9628 32.9706 25.5719 31.5209 26.5841 30.4529C27.5963 29.3848 28.9372 28.777 30.3389 28.7508L31.8828 28.7151L31.8828 28.713L31.8917 28.7149L36.4725 28.6089C37.2895 28.5889 38.0657 28.2127 38.6308 27.5627C39.1959 26.9128 39.5038 26.0422 39.487 25.1419L39.1361 7.39023C39.1174 6.48998 38.7754 5.63438 38.1851 5.01116C37.5948 4.38793 36.8044 4.04799 35.9874 4.06591L31.4065 4.1719C31.0152 4.18429 30.6298 4.27962 30.2713 4.45267L30.3183 4.27596L21.2289 1.33618C19.5613 0.795258 17.8281 0.541101 16.0905 0.58269L8.69992 0.753695C7.96862 0.770764 7.25299 0.989372 6.61833 1.38957C5.98368 1.78976 5.45022 2.3588 5.06663 3.04475C4.68303 3.7307 4.46153 4.51172 4.42234 5.31652C4.38314 6.12133 4.5275 6.92429 4.84224 7.65214C4.30441 7.96923 3.83285 8.40687 3.45785 8.93691C3.08285 9.46696 2.81271 10.0777 2.6648 10.7298C2.5169 11.382 2.49449 12.0611 2.59903 12.7236C2.70356 13.3861 2.93272 14.0173 3.27179 14.5765C2.51813 15.3043 2.01444 16.2954 1.84505 17.384C1.67566 18.4726 1.85086 19.5926 2.34131 20.5564C1.57007 21.148 0.992339 21.9976 0.693603 22.9795C0.394867 23.9614 0.390994 25.0234 0.682561 26.0084C0.974129 26.9934 1.54564 27.8491 2.31254 28.4488C3.07944 29.0485 4.00098 29.3605 4.94082 29.3384L4.94235 29.3384ZM31.4498 7.56807L31.4731 7.54124L36.0784 7.46098L36.4059 25.2395L31.8007 25.3198L31.4498 7.56807ZM4.81825 23.0603L6.25754 23.027C6.66303 23.0176 7.0484 22.8311 7.32887 22.5086C7.60935 22.186 7.76196 21.7538 7.75313 21.307C7.74429 20.8602 7.57474 20.4354 7.28178 20.1261C6.98881 19.8168 6.59642 19.6483 6.19094 19.6577C5.84384 19.6599 5.50978 19.5116 5.26089 19.2448C5.012 18.978 4.86825 18.6141 4.86069 18.2317C4.85314 17.8493 4.98237 17.4792 5.22049 17.2011C5.45862 16.923 5.78651 16.7594 6.13337 16.7456L7.00821 16.7253C7.41369 16.7159 7.79906 16.5294 8.07954 16.2069C8.36001 15.8843 8.51262 15.4521 8.50379 15.0053C8.49496 14.5585 8.32541 14.1337 8.03244 13.8244C7.73948 13.5151 7.34709 13.3466 6.9416 13.356C6.59159 13.3641 6.25288 13.2186 5.99999 12.9516C5.7471 12.6846 5.60075 12.318 5.59313 11.9323C5.5855 11.5466 5.71723 11.1735 5.95934 10.8951C6.20145 10.6166 6.5341 10.4557 6.88411 10.4476L8.89062 10.4011C9.29611 10.3917 9.68147 10.2053 9.96195 9.88269C10.2424 9.56011 10.395 9.12789 10.3862 8.68108C10.3774 8.23428 10.2078 7.8095 9.91486 7.5002C9.62189 7.1909 9.2295 7.02241 8.82402 7.03179C8.47733 7.034 8.14365 6.88586 7.89505 6.61937C7.64645 6.35288 7.50287 5.98943 7.49532 5.60749C7.48777 5.22556 7.61686 4.85579 7.8547 4.57805C8.09254 4.3003 8.42006 4.13687 8.76652 4.12304L16.1571 3.95203C17.5806 3.91786 19.0006 4.12594 20.3668 4.56891L28.4642 7.18849C28.4301 7.33651 28.4056 7.48701 28.3908 7.63885L28.7417 25.3906C28.743 25.458 28.7748 25.5162 28.7813 25.5838C26.8628 25.9832 25.1263 27.0935 23.86 28.7304C22.5938 30.3673 21.8737 32.4325 21.8194 34.5833L21.8883 38.0679C21.9054 38.9335 21.6308 39.1077 21.5395 39.1624C21.3713 39.2477 21.1895 39.2952 21.0044 39.3023C20.8194 39.3094 20.6349 39.276 20.4616 39.2039C20.0028 38.7292 19.6231 38.1694 19.3399 37.5501C18.2421 34.5027 18.2113 31.1154 19.2536 28.0462C19.3595 27.7867 19.4039 27.5018 19.3828 27.2181C19.3617 26.9344 19.2757 26.6612 19.1329 26.4239C18.9901 26.1866 18.7951 25.993 18.5661 25.8611C18.3371 25.7293 18.0815 25.6635 17.8233 25.6698L4.87575 25.9694C4.7008 25.9764 4.52629 25.945 4.3624 25.8769C4.19851 25.8089 4.04851 25.7057 3.92112 25.5732C3.79374 25.4408 3.69151 25.2818 3.6204 25.1054C3.54928 24.9291 3.51069 24.7389 3.50688 24.546C3.50306 24.3532 3.5341 24.1614 3.59819 23.9819C3.66227 23.8025 3.75812 23.6388 3.88015 23.5006C4.00219 23.3624 4.14798 23.2523 4.30903 23.1768C4.47008 23.1012 4.64318 23.0618 4.81826 23.0607L4.81825 23.0603Z" fill="#575252"/>
</svg>
