<svg width="23" height="23" viewBox="0 0 23 23" fill="none" xmlns="http://www.w3.org/2000/svg">
<path fill-rule="evenodd" clip-rule="evenodd" d="M11.8097 0.353516C5.73456 0.353516 0.809692 5.27838 0.809692 11.3535C0.809692 17.4286 5.73456 22.3535 11.8097 22.3535C17.8848 22.3535 22.8097 17.4286 22.8097 11.3535C22.8097 5.27838 17.8848 0.353516 11.8097 0.353516ZM9.39116 5.52185C10.0169 5.49338 10.2169 5.48641 11.8102 5.48641H11.8084C13.4022 5.48641 13.6014 5.49338 14.2272 5.52185C14.8517 5.55045 15.2783 5.64933 15.6523 5.7944C16.0385 5.94412 16.3649 6.14457 16.6912 6.47089C17.0175 6.79697 17.218 7.12428 17.3683 7.51013C17.5125 7.88314 17.6115 8.30945 17.6409 8.93399C17.669 9.55976 17.6763 9.75971 17.6763 11.353C17.6763 12.9462 17.669 13.1457 17.6409 13.7715C17.6115 14.3958 17.5125 14.8222 17.3683 15.1953C17.218 15.581 17.0175 15.9083 16.6912 16.2344C16.3652 16.5608 16.0384 16.7617 15.6527 16.9115C15.2794 17.0566 14.8526 17.1555 14.228 17.1841C13.6022 17.2126 13.4029 17.2195 11.8095 17.2195C10.2163 17.2195 10.0165 17.2126 9.39067 17.1841C8.76623 17.1555 8.33979 17.0566 7.96652 16.9115C7.58091 16.7617 7.25359 16.5608 6.92762 16.2344C6.60141 15.9083 6.40096 15.581 6.251 15.1952C6.10604 14.8222 6.00716 14.3959 5.97844 13.7713C5.95008 13.1456 5.94299 12.9462 5.94299 11.353C5.94299 9.75971 5.95033 9.55963 5.97832 8.93387C6.00643 8.30957 6.10543 7.88314 6.25087 7.51001C6.40121 7.12428 6.60165 6.79697 6.92799 6.47089C7.25408 6.14469 7.5814 5.94425 7.96726 5.7944C8.34028 5.64933 8.7666 5.55045 9.39116 5.52185Z" fill="white"/>
<path fill-rule="evenodd" clip-rule="evenodd" d="M11.284 6.54517C11.3861 6.54501 11.4961 6.54506 11.6147 6.54511L11.8103 6.54517C13.3767 6.54517 13.5623 6.55079 14.1809 6.5789C14.7529 6.60506 15.0634 6.70063 15.2702 6.78093C15.544 6.88727 15.7392 7.01438 15.9444 7.21971C16.1497 7.42504 16.2768 7.6206 16.3834 7.89438C16.4637 8.10093 16.5594 8.41138 16.5854 8.98337C16.6135 9.60182 16.6197 9.7876 16.6197 11.3533C16.6197 12.9189 16.6135 13.1047 16.5854 13.7231C16.5593 14.2951 16.4637 14.6056 16.3834 14.8121C16.2771 15.0859 16.1497 15.2809 15.9444 15.4861C15.739 15.6914 15.5441 15.8185 15.2702 15.9249C15.0636 16.0055 14.7529 16.1009 14.1809 16.127C13.5625 16.1551 13.3767 16.1612 11.8103 16.1612C10.2437 16.1612 10.058 16.1551 9.43959 16.127C8.86758 16.1006 8.55714 16.005 8.35021 15.9247C8.07643 15.8184 7.88087 15.6913 7.67553 15.486C7.4702 15.2806 7.34308 15.0856 7.2365 14.8117C7.1562 14.6051 7.0605 14.2947 7.03447 13.7227C7.00635 13.1042 7.00073 12.9184 7.00073 11.3518C7.00073 9.78515 7.00635 9.60035 7.03447 8.98191C7.06062 8.40991 7.1562 8.09947 7.2365 7.89267C7.34284 7.61889 7.4702 7.42333 7.67553 7.218C7.88087 7.01267 8.07643 6.88556 8.35021 6.77898C8.55701 6.69831 8.86758 6.60298 9.43959 6.5767C9.9808 6.55226 10.1905 6.54492 11.284 6.5437V6.54517ZM14.9418 7.51939C14.5531 7.51939 14.2378 7.83433 14.2378 8.22307C14.2378 8.61169 14.5531 8.92699 14.9418 8.92699C15.3305 8.92699 15.6458 8.61169 15.6458 8.22307C15.6458 7.83445 15.3305 7.51915 14.9418 7.51915V7.51939ZM8.79724 11.3538C8.79724 9.68999 10.1462 8.341 11.81 8.34094C13.4739 8.34094 14.8225 9.68995 14.8225 11.3538C14.8225 13.0177 13.474 14.3661 11.8101 14.3661C10.1463 14.3661 8.79724 13.0177 8.79724 11.3538Z" fill="white"/>
<path fill-rule="evenodd" clip-rule="evenodd" d="M11.8102 9.39819C12.8902 9.39819 13.7658 10.2737 13.7658 11.3539C13.7658 12.4339 12.8902 13.3095 11.8102 13.3095C10.7301 13.3095 9.85461 12.4339 9.85461 11.3539C9.85461 10.2737 10.7301 9.39819 11.8102 9.39819V9.39819Z" fill="white"/>
</svg>
