<svg width="25" height="25" viewBox="0 0 25 25" fill="none" xmlns="http://www.w3.org/2000/svg">
<path fill-rule="evenodd" clip-rule="evenodd" d="M12.4321 0.376465C5.80471 0.376465 0.432129 5.74905 0.432129 12.3765C0.432129 19.0039 5.80471 24.3765 12.4321 24.3765C19.0595 24.3765 24.4321 19.0039 24.4321 12.3765C24.4321 5.74905 19.0595 0.376465 12.4321 0.376465ZM9.79374 6.01548C10.4764 5.98441 10.6945 5.97681 12.4327 5.97681H12.4307C14.1694 5.97681 14.3867 5.98441 15.0694 6.01548C15.7507 6.04668 16.2161 6.15454 16.6241 6.31281C17.0454 6.47614 17.4014 6.6948 17.7574 7.05079C18.1134 7.40652 18.3321 7.76358 18.4961 8.1845C18.6534 8.59143 18.7614 9.05649 18.7934 9.73781C18.8241 10.4205 18.8321 10.6386 18.8321 12.3767C18.8321 14.1148 18.8241 14.3324 18.7934 15.015C18.7614 15.6961 18.6534 16.1613 18.4961 16.5683C18.3321 16.9891 18.1134 17.3462 17.7574 17.7019C17.4018 18.0579 17.0453 18.2771 16.6245 18.4406C16.2173 18.5988 15.7517 18.7067 15.0703 18.7379C14.3876 18.769 14.1702 18.7766 12.4319 18.7766C10.6939 18.7766 10.4759 18.769 9.79321 18.7379C9.112 18.7067 8.6468 18.5988 8.23959 18.4406C7.81892 18.2771 7.46185 18.0579 7.10625 17.7019C6.75038 17.3462 6.53171 16.9891 6.36811 16.5682C6.20997 16.1613 6.10211 15.6962 6.07077 15.0149C6.03984 14.3323 6.0321 14.1148 6.0321 12.3767C6.0321 10.6386 6.0401 10.4203 6.07064 9.73767C6.10131 9.05662 6.20931 8.59143 6.36797 8.18437C6.53198 7.76358 6.75064 7.40652 7.10665 7.05079C7.46238 6.69493 7.81945 6.47627 8.24039 6.31281C8.64733 6.15454 9.1124 6.04668 9.79374 6.01548Z" fill="white"/>
<path fill-rule="evenodd" clip-rule="evenodd" d="M11.8586 7.13051C11.9701 7.13033 12.0901 7.13039 12.2195 7.13044L12.4328 7.13051C14.1416 7.13051 14.3442 7.13664 15.019 7.16731C15.643 7.19584 15.9816 7.30011 16.2072 7.38771C16.5059 7.50371 16.7189 7.64237 16.9427 7.86637C17.1667 8.09037 17.3054 8.3037 17.4217 8.60237C17.5093 8.8277 17.6137 9.16637 17.6421 9.79037C17.6727 10.465 17.6794 10.6677 17.6794 12.3757C17.6794 14.0837 17.6727 14.2864 17.6421 14.961C17.6135 15.585 17.5093 15.9237 17.4217 16.149C17.3057 16.4477 17.1667 16.6604 16.9427 16.8842C16.7187 17.1082 16.5061 17.2469 16.2072 17.3629C15.9819 17.4509 15.643 17.5549 15.019 17.5834C14.3443 17.6141 14.1416 17.6208 12.4328 17.6208C10.7238 17.6208 10.5213 17.6141 9.84661 17.5834C9.2226 17.5546 8.88393 17.4504 8.65819 17.3628C8.35952 17.2468 8.14618 17.1081 7.92218 16.8841C7.69818 16.6601 7.55951 16.4473 7.44324 16.1485C7.35564 15.9232 7.25124 15.5845 7.22284 14.9605C7.19217 14.2858 7.18604 14.0832 7.18604 12.3741C7.18604 10.665 7.19217 10.4634 7.22284 9.78877C7.25137 9.16477 7.35564 8.8261 7.44324 8.6005C7.55924 8.30184 7.69818 8.0885 7.92218 7.8645C8.14618 7.64051 8.35952 7.50184 8.65819 7.38557C8.8838 7.29757 9.2226 7.19357 9.84661 7.16491C10.437 7.13824 10.6658 7.13024 11.8586 7.12891V7.13051ZM15.8491 8.19288C15.4251 8.19288 15.0811 8.53644 15.0811 8.96052C15.0811 9.38448 15.4251 9.72844 15.8491 9.72844C16.2731 9.72844 16.6171 9.38448 16.6171 8.96052C16.6171 8.53657 16.2731 8.19261 15.8491 8.19261V8.19288ZM9.14587 12.3768C9.14587 10.5617 10.6174 9.09009 12.4325 9.09002C14.2476 9.09002 15.7189 10.5617 15.7189 12.3768C15.7189 14.1919 14.2478 15.6629 12.4326 15.6629C10.6175 15.6629 9.14587 14.1919 9.14587 12.3768Z" fill="white"/>
<path fill-rule="evenodd" clip-rule="evenodd" d="M12.4327 10.2437C13.6108 10.2437 14.5661 11.1988 14.5661 12.3771C14.5661 13.5553 13.6108 14.5106 12.4327 14.5106C11.2544 14.5106 10.2993 13.5553 10.2993 12.3771C10.2993 11.1988 11.2544 10.2437 12.4327 10.2437V10.2437Z" fill="white"/>
</svg>
