<svg width="40" height="43" viewBox="0 0 40 43" fill="none" xmlns="http://www.w3.org/2000/svg">
<path d="M34.6617 13.8281L23.8555 13.8094C24.5691 10.4894 24.345 7.00845 23.2133 3.83278C22.7658 2.79227 22.1463 1.85269 21.3866 1.06209C20.7784 0.552557 20.0579 0.231083 19.2993 0.130838C18.5407 0.0305921 17.7716 0.155206 17.0713 0.491821C16.3637 0.864387 15.7736 1.46189 15.377 2.20734C14.9803 2.95279 14.7954 3.81203 14.8459 4.67433L14.8408 8.1597C14.7236 9.69915 14.0839 11.1333 13.0493 12.1759C12.0147 13.2185 10.6613 13.7928 9.25932 13.7842L7.7151 13.7815L7.7151 13.7836L7.70623 13.7815L3.12435 13.7736C2.30716 13.7733 1.5232 14.1301 0.944424 14.7658C0.365648 15.4015 0.0393186 16.2642 0.0370183 17.1647L0.0108128 34.9204C0.0103743 35.8209 0.334129 36.6848 0.911044 37.3225C1.48796 37.9602 2.27091 38.3198 3.08812 38.3221L7.67 38.3301C8.06147 38.3274 8.44882 38.2417 8.81088 38.0776L8.76015 38.2531L17.7847 41.418C19.4404 42.0003 21.1677 42.2975 22.9057 42.2991L30.298 42.3118C31.0295 42.313 31.7496 42.1122 32.3926 41.7279C33.0356 41.3436 33.581 40.788 33.979 40.1117C34.3771 39.4355 34.6151 38.6602 34.6714 37.8566C34.7277 37.0529 34.6004 36.2466 34.3012 35.5111C34.8456 35.2075 35.3264 34.7817 35.7125 34.2611C36.0987 33.7405 36.3817 33.1367 36.5434 32.4884C36.7051 31.8401 36.742 31.1617 36.6515 30.4968C36.5611 29.8318 36.3454 29.1952 36.0183 28.6276C36.7872 27.9188 37.3118 26.9404 37.5043 25.8563C37.6967 24.7722 37.5454 23.6482 37.0755 22.6724C37.8591 22.1002 38.4547 21.2651 38.7743 20.2909C39.0938 19.3167 39.1202 18.2551 38.8496 17.2631C38.5791 16.2711 38.0259 15.4015 37.2719 14.7828C36.5179 14.1642 35.6033 13.8294 34.6632 13.8281L34.6617 13.8281ZM7.69887 34.9337L7.67497 34.96L3.06928 34.9257L3.11938 17.1437L7.72508 17.178L7.69887 34.9337ZM34.6524 20.1076L33.2128 20.1051C32.8072 20.1044 32.418 20.2813 32.1307 20.5968C31.8435 20.9123 31.6817 21.3406 31.6811 21.7875C31.6804 22.2344 31.8409 22.6633 32.1272 22.9798C32.4135 23.2963 32.8022 23.4745 33.2078 23.4752C33.5549 23.4817 33.8857 23.6382 34.1289 23.9111C34.372 24.1841 34.508 24.5514 34.5074 24.9339C34.5069 25.3163 34.3698 25.6832 34.1258 25.9553C33.8819 26.2274 33.5506 26.3828 33.2035 26.388L32.3285 26.3865C31.9229 26.3858 31.5337 26.5627 31.2464 26.8782C30.9592 27.1937 30.7974 27.622 30.7968 28.0689C30.7961 28.5158 30.9566 28.9447 31.2429 29.2612C31.5292 29.5777 31.9179 29.7559 32.3235 29.7566C32.6736 29.7572 33.0091 29.911 33.2563 30.1843C33.5035 30.4575 33.642 30.8277 33.6414 31.2134C33.6408 31.5992 33.5012 31.9689 33.2533 32.2413C33.0053 32.5136 32.6693 32.6663 32.3192 32.6657L30.3123 32.6622C29.9067 32.6615 29.5175 32.8384 29.2302 33.1539C28.943 33.4694 28.7812 33.8977 28.7806 34.3446C28.7799 34.7915 28.9404 35.2204 29.2267 35.5369C29.513 35.8534 29.9017 36.0316 30.3073 36.0323C30.6539 36.0387 30.9844 36.1951 31.2273 36.4677C31.4701 36.7403 31.606 37.1073 31.6054 37.4893C31.6048 37.8713 31.4679 38.2378 31.2242 38.5095C30.9806 38.7813 30.6497 38.9365 30.303 38.9417L22.9107 38.929C21.4868 38.9277 20.0717 38.6844 18.7152 38.2076L10.6756 35.3874C10.7128 35.2403 10.7406 35.0904 10.7586 34.939L10.7848 17.1833C10.7849 17.1158 10.7544 17.0568 10.7493 16.9891C12.6758 16.6374 14.4354 15.5706 15.7361 13.9656C17.0368 12.3606 17.8005 10.3139 17.9005 8.16498L17.9056 4.67962C17.9069 3.81384 18.1851 3.64649 18.2776 3.59407C18.4475 3.51305 18.6303 3.47003 18.8155 3.46751C19.0006 3.465 19.1843 3.50304 19.356 3.57942C19.8047 4.06542 20.1724 4.63446 20.4423 5.26063C21.4751 8.3345 21.4339 11.7217 20.3268 14.7642C20.2154 15.021 20.1649 15.3047 20.18 15.5889C20.1951 15.873 20.2752 16.1483 20.413 16.3891C20.5507 16.6299 20.7416 16.8283 20.9677 16.9658C21.1939 17.1033 21.448 17.1754 21.7063 17.1755L34.6567 17.1979C34.8318 17.1952 35.0056 17.231 35.168 17.3031C35.3304 17.3751 35.4781 17.4821 35.6027 17.6177C35.7272 17.7532 35.826 17.9148 35.8934 18.0928C35.9607 18.2709 35.9953 18.462 35.995 18.6549C35.9947 18.8478 35.9596 19.0387 35.8917 19.2166C35.8239 19.3944 35.7246 19.5556 35.5996 19.6908C35.4747 19.8259 35.3266 19.9323 35.164 20.0039C35.0014 20.0754 34.8275 20.1105 34.6524 20.1073L34.6524 20.1076Z" fill="#575252"/>
</svg>
