<svg width="31" height="28" viewBox="0 0 31 28" fill="none" xmlns="http://www.w3.org/2000/svg">
<path d="M27.0014 8.80073L18.6291 8.78865C19.1819 6.66583 19.0083 4.4401 18.1314 2.40955C17.7846 1.74423 17.3047 1.14346 16.7161 0.637932C16.2449 0.31213 15.6866 0.106569 15.0989 0.0424622C14.5112 -0.021645 13.9153 0.0580238 13.3727 0.273247C12.8245 0.511458 12.3673 0.893497 12.06 1.37014C11.7527 1.84677 11.6094 2.39617 11.6486 2.94753L11.6446 5.17608C11.5539 6.16041 11.0583 7.07743 10.2567 7.74405C9.45514 8.41068 8.40659 8.77788 7.32038 8.77234L6.12397 8.77062L6.12396 8.77191L6.11709 8.77061L2.56718 8.76548C1.93405 8.76526 1.32666 8.9934 0.878254 9.39987C0.429843 9.80634 0.177024 10.358 0.175254 10.9337L0.155187 22.2868C0.154859 22.8626 0.405706 23.4149 0.852691 23.8227C1.29968 24.2305 1.90629 24.4603 2.53944 24.4619L6.08935 24.467C6.39265 24.4653 6.69276 24.4105 6.97326 24.3056L6.93397 24.4178L13.926 26.4416C15.2088 26.8139 16.5471 27.004 17.8936 27.005L23.6209 27.0133C24.1877 27.014 24.7456 26.8856 25.2437 26.6399C25.7419 26.3942 26.1644 26.0389 26.4728 25.6066C26.7812 25.1742 26.9656 24.6784 27.0092 24.1646C27.0528 23.6508 26.9542 23.1352 26.7224 22.6649C27.1442 22.4708 27.5166 22.1985 27.8158 21.8657C28.115 21.5328 28.3343 21.1467 28.4596 20.7322C28.5848 20.3177 28.6134 19.8839 28.5433 19.4587C28.4732 19.0336 28.3061 18.6265 28.0527 18.2636C28.6484 17.8104 29.0548 17.1848 29.2039 16.4916C29.353 15.7985 29.2357 15.0798 28.8717 14.4558C29.4788 14.0899 29.9403 13.5561 30.1878 12.9331C30.4353 12.3102 30.4558 11.6314 30.2461 10.9971C30.0365 10.3629 29.6079 9.80679 29.0237 9.41123C28.4396 9.01566 27.7309 8.8016 27.0026 8.80073L27.0014 8.80073ZM6.11167 22.2954L6.09316 22.3122L2.52479 22.2902L2.56337 10.9203L6.13174 10.9423L6.11167 22.2954ZM26.9943 12.8159L25.8789 12.8143C25.5647 12.8138 25.2631 12.9269 25.0406 13.1286C24.818 13.3304 24.6927 13.6042 24.6922 13.89C24.6917 14.1757 24.8161 14.45 25.0379 14.6523C25.2597 14.8547 25.5609 14.9687 25.8751 14.9691C26.144 14.9732 26.4003 15.0733 26.5887 15.2479C26.7771 15.4224 26.8825 15.6572 26.882 15.9018C26.8816 16.1463 26.7754 16.3809 26.5864 16.5549C26.3974 16.7289 26.1407 16.8282 25.8718 16.8316L25.1939 16.8306C24.8797 16.8301 24.5781 16.9432 24.3555 17.145C24.133 17.3467 24.0077 17.6206 24.0072 17.9063C24.0067 18.1921 24.131 18.4663 24.3528 18.6687C24.5747 18.871 24.8758 18.985 25.1901 18.9854C25.4613 18.9858 25.7213 19.0842 25.9128 19.2589C26.1043 19.4336 26.2116 19.6703 26.2112 19.917C26.2107 20.1636 26.1025 20.4 25.9104 20.5742C25.7183 20.7483 25.458 20.8459 25.1868 20.8455L23.6318 20.8433C23.3176 20.8428 23.0161 20.9559 22.7935 21.1576C22.571 21.3594 22.4456 21.6332 22.4451 21.919C22.4446 22.2047 22.569 22.479 22.7908 22.6813C23.0127 22.8837 23.3138 22.9977 23.628 22.9981C23.8966 23.0022 24.1526 23.1022 24.3408 23.2765C24.529 23.4508 24.6342 23.6855 24.6338 23.9297C24.6334 24.174 24.5273 24.4083 24.3385 24.5821C24.1497 24.7558 23.8933 24.8551 23.6247 24.8584L17.8974 24.8502C16.7942 24.8494 15.6978 24.6938 14.6469 24.3889L8.41798 22.5855C8.44681 22.4914 8.46828 22.3956 8.48223 22.2988L8.50229 10.9457C8.50237 10.9026 8.47874 10.8649 8.47479 10.8216C9.9674 10.5967 11.3307 9.91465 12.3384 8.88842C13.3461 7.8622 13.9378 6.55353 14.0152 5.1795L14.0191 2.95095C14.0201 2.39737 14.2357 2.29037 14.3073 2.25685C14.439 2.20505 14.5806 2.17754 14.7241 2.17594C14.8675 2.17433 15.0099 2.19866 15.1429 2.2475C15.4905 2.55825 15.7754 2.9221 15.9846 3.32248C16.7848 5.28794 16.7529 7.45375 15.8951 9.39906C15.8089 9.56328 15.7698 9.74469 15.7814 9.92638C15.7931 10.1081 15.8552 10.2841 15.9619 10.438C16.0687 10.592 16.2165 10.7189 16.3918 10.8068C16.567 10.8947 16.7638 10.9409 16.964 10.9409L26.9976 10.9554C27.1332 10.9537 27.2679 10.9766 27.3937 11.0226C27.5195 11.0687 27.634 11.1371 27.7305 11.2238C27.827 11.3105 27.9036 11.4138 27.9557 11.5276C28.0079 11.6415 28.0347 11.7637 28.0345 11.887C28.0343 12.0104 28.0071 12.1325 27.9545 12.2462C27.9019 12.3599 27.825 12.4629 27.7282 12.5493C27.6314 12.6358 27.5166 12.7038 27.3906 12.7495C27.2647 12.7953 27.1299 12.8177 26.9943 12.8157L26.9943 12.8159Z" fill="#575252"/>
</svg>
