<svg width="25" height="25" viewBox="0 0 25 25" fill="none" xmlns="http://www.w3.org/2000/svg">
<path fill-rule="evenodd" clip-rule="evenodd" d="M12.6482 0.376465C6.02078 0.376465 0.648193 5.74905 0.648193 12.3765C0.648193 19.0039 6.02078 24.3765 12.6482 24.3765C19.2756 24.3765 24.6482 19.0039 24.6482 12.3765C24.6482 5.74905 19.2756 0.376465 12.6482 0.376465ZM12.314 10.5459L12.2888 10.1307C12.2132 9.05447 12.8764 8.07148 13.9256 7.69014C14.3117 7.55456 14.9664 7.53761 15.3945 7.65625C15.5624 7.70709 15.8813 7.87657 16.1079 8.02911L16.5192 8.30875L16.9725 8.16469C17.2243 8.08843 17.5601 7.96132 17.7112 7.87657C17.8538 7.80031 17.9798 7.75794 17.9798 7.78336C17.9798 7.92742 17.6692 8.41892 17.409 8.69009C17.0564 9.07142 17.1572 9.10532 17.8706 8.85109C18.2987 8.70704 18.3071 8.70704 18.2232 8.86804C18.1728 8.95278 17.9126 9.24938 17.6356 9.52055C17.1656 9.98662 17.1404 10.0375 17.1404 10.4273C17.1404 11.0289 16.855 12.2831 16.5696 12.9695C16.0408 14.2576 14.9076 15.588 13.7745 16.2574C12.1797 17.1981 10.0561 17.4353 8.26819 16.8845C7.67223 16.6981 6.64819 16.2236 6.64819 16.1388C6.64819 16.1134 6.95876 16.0795 7.33648 16.071C8.12549 16.0541 8.91451 15.8337 9.58601 15.4439L10.0393 15.1728L9.51886 14.9948C8.78021 14.7406 8.1171 14.1559 7.94922 13.6051C7.89886 13.4271 7.91565 13.4186 8.3857 13.4186L8.87254 13.4102L8.46124 13.2153C7.97441 12.9695 7.52954 12.5543 7.3113 12.1306C7.15182 11.8255 6.95037 11.0544 7.00912 10.995C7.02591 10.9696 7.20218 11.0205 7.40363 11.0883C7.9828 11.3001 8.05834 11.2493 7.72259 10.8934C7.09306 10.2493 6.90001 9.29175 7.20218 8.38502L7.34487 7.97826L7.89886 8.52908C9.03202 9.63918 10.3666 10.3002 11.8943 10.4951L12.314 10.5459Z" fill="white"/>
</svg>
