<svg width="23" height="23" viewBox="0 0 23 23" fill="none" xmlns="http://www.w3.org/2000/svg">
<path fill-rule="evenodd" clip-rule="evenodd" d="M11.7145 0.353516C5.63935 0.353516 0.714478 5.27838 0.714478 11.3535C0.714478 17.4286 5.63935 22.3535 11.7145 22.3535C17.7896 22.3535 22.7145 17.4286 22.7145 11.3535C22.7145 5.27838 17.7896 0.353516 11.7145 0.353516ZM11.4082 9.67569L11.3851 9.29506C11.3159 8.30854 11.9237 7.40746 12.8855 7.0579C13.2395 6.93362 13.8396 6.91808 14.232 7.02683C14.3859 7.07344 14.6783 7.2288 14.886 7.36862L15.2631 7.62496L15.6786 7.49291C15.9094 7.423 16.2171 7.30648 16.3556 7.2288C16.4864 7.15889 16.6019 7.12005 16.6019 7.14335C16.6019 7.27541 16.3172 7.72594 16.0787 7.97452C15.7555 8.32407 15.8478 8.35515 16.5018 8.12211C16.8942 7.99005 16.9019 7.99005 16.825 8.13764C16.7788 8.21532 16.5403 8.4872 16.2864 8.73577C15.8555 9.16301 15.8324 9.20962 15.8324 9.56694C15.8324 10.1185 15.5708 11.2681 15.3092 11.8973C14.8245 13.078 13.7858 14.2976 12.747 14.9113C11.2851 15.7735 9.33847 15.991 7.69959 15.4861C7.1533 15.3152 6.2146 14.8802 6.2146 14.8025C6.2146 14.7792 6.49929 14.7481 6.84553 14.7404C7.56879 14.7248 8.29205 14.5229 8.90759 14.1655L9.32308 13.917L8.84604 13.7538C8.16894 13.5208 7.5611 12.9848 7.40721 12.4799C7.36105 12.3168 7.37643 12.309 7.80731 12.309L8.25358 12.3012L7.87656 12.1226C7.43029 11.8973 7.0225 11.5167 6.82245 11.1283C6.67626 10.8486 6.49159 10.1418 6.54545 10.0874C6.56084 10.0641 6.72242 10.1107 6.90708 10.1728C7.43799 10.367 7.50724 10.3204 7.19947 9.99418C6.6224 9.40382 6.44543 8.52604 6.72242 7.69487L6.85322 7.32201L7.36105 7.82693C8.39977 8.84452 9.62316 9.45042 11.0235 9.62908L11.4082 9.67569Z" fill="white"/>
</svg>
