<svg width="61" height="61" viewBox="0 0 61 61" fill="none" xmlns="http://www.w3.org/2000/svg">
<path fill-rule="evenodd" clip-rule="evenodd" d="M30.5406 0.354004C13.972 0.354004 0.540588 13.7855 0.540588 30.354C0.540588 46.9225 13.972 60.354 30.5406 60.354C47.1091 60.354 60.5406 46.9225 60.5406 30.354C60.5406 13.7855 47.1091 0.354004 30.5406 0.354004ZM32.9832 39.8246C32.6874 40.1364 32.1099 40.1994 32.1099 40.1994H30.1973C30.1973 40.1994 25.9777 40.4483 22.2606 36.6505C18.2069 32.5071 14.6275 24.2862 14.6275 24.2862C14.6275 24.2862 14.4209 23.747 14.6447 23.4874C14.8967 23.1939 15.5838 23.1755 15.5838 23.1755L20.1555 23.1463C20.1555 23.1463 20.5859 23.2154 20.8942 23.4382C21.1493 23.6226 21.2918 23.9652 21.2918 23.9652C21.2918 23.9652 22.0305 25.7995 23.0087 27.4587C24.9197 30.6988 25.8087 31.4071 26.4567 31.0599C27.402 30.5544 27.1187 26.4801 27.1187 26.4801C27.1187 26.4801 27.1359 25.0022 26.6429 24.3431C26.261 23.833 25.5411 23.684 25.2233 23.6425C24.9651 23.6087 25.3877 23.0219 25.9355 22.7591C26.7587 22.3643 28.2112 22.3413 29.9281 22.3582C31.2663 22.372 31.6513 22.4534 32.174 22.5779C33.3873 22.8652 33.3494 23.7862 33.2677 25.7739C33.2432 26.3684 33.2148 27.0583 33.2148 27.8551C33.2148 28.0342 33.2095 28.2251 33.204 28.4214C33.1757 29.4397 33.1432 30.6059 33.8268 31.0399C34.1774 31.2611 35.0335 31.0722 37.1762 27.5018C38.1919 25.8087 38.9526 23.8192 38.9526 23.8192C38.9526 23.8192 39.12 23.4643 39.3783 23.3122C39.6428 23.1571 39.9996 23.2047 39.9996 23.2047L44.8108 23.1755C44.8108 23.1755 46.257 23.005 46.4902 23.6471C46.7359 24.3185 45.9502 25.8886 43.9844 28.4604C42.1197 30.9007 41.2122 31.7991 41.2955 32.5937C41.3564 33.1743 41.9463 33.6995 43.0782 34.7301C45.4412 36.8837 46.0746 38.0167 46.2268 38.2889C46.2394 38.3115 46.2487 38.3281 46.2554 38.3389C47.315 40.0642 45.08 40.1994 45.08 40.1994L40.8057 40.2578C40.8057 40.2578 39.8885 40.436 38.6802 39.6218C38.0473 39.1956 37.4288 38.4996 36.8397 37.8366C35.9401 36.8241 35.109 35.8888 34.3996 36.1097C33.2086 36.4815 33.2446 38.9996 33.2446 38.9996C33.2446 38.9996 33.254 39.5388 32.9832 39.8246Z" fill="white"/>
</svg>
