<svg width="23" height="22" viewBox="0 0 23 22" fill="none" xmlns="http://www.w3.org/2000/svg">
<path fill-rule="evenodd" clip-rule="evenodd" d="M11.9048 0C5.82965 0 0.904785 4.92487 0.904785 11C0.904785 17.0751 5.82965 22 11.9048 22C17.9799 22 22.9048 17.0751 22.9048 11C22.9048 4.92487 17.9799 0 11.9048 0ZM12.8006 14.4719C12.6922 14.5862 12.4804 14.6093 12.4804 14.6093H11.7791C11.7791 14.6093 10.232 14.7006 8.869 13.3081C7.38266 11.7889 6.0702 8.77462 6.0702 8.77462C6.0702 8.77462 5.99445 8.5769 6.07651 8.4817C6.16891 8.37411 6.42084 8.36735 6.42084 8.36735L8.09713 8.35665C8.09713 8.35665 8.25495 8.382 8.368 8.46368C8.46154 8.53127 8.51377 8.65689 8.51377 8.65689C8.51377 8.65689 8.78464 9.32947 9.14331 9.93784C9.84401 11.1258 10.17 11.3855 10.4076 11.2582C10.7542 11.0729 10.6503 9.57902 10.6503 9.57902C10.6503 9.57902 10.6566 9.03712 10.4759 8.79546C10.3358 8.60845 10.0718 8.55381 9.95535 8.5386C9.86066 8.52621 10.0156 8.31102 10.2165 8.2147C10.5183 8.06993 11.0509 8.06148 11.6804 8.06768C12.1711 8.07275 12.3123 8.1026 12.5039 8.14823C12.9488 8.2536 12.9349 8.59129 12.9049 9.32009C12.896 9.53806 12.8856 9.791 12.8856 10.0832C12.8856 10.1488 12.8836 10.2188 12.8816 10.2908C12.8712 10.6642 12.8593 11.0918 13.1099 11.2509C13.2385 11.332 13.5524 11.2627 14.338 9.95361C14.7105 9.33285 14.9894 8.60338 14.9894 8.60338C14.9894 8.60338 15.0508 8.47325 15.1455 8.41749C15.2425 8.36059 15.3733 8.37806 15.3733 8.37806L17.1374 8.36735C17.1374 8.36735 17.6677 8.30483 17.7532 8.54029C17.8433 8.78645 17.5552 9.36215 16.8344 10.3051C16.1507 11.1998 15.8179 11.5293 15.8485 11.8206C15.8708 12.0335 16.0871 12.226 16.5021 12.604C17.3685 13.3935 17.6008 13.809 17.6566 13.9088C17.6612 13.9171 17.6646 13.9232 17.6671 13.9271C18.0556 14.5597 17.2361 14.6093 17.2361 14.6093L15.6689 14.6307C15.6689 14.6307 15.3326 14.6961 14.8895 14.3975C14.6575 14.2413 14.4307 13.986 14.2147 13.743C13.8848 13.3717 13.5801 13.0288 13.32 13.1098C12.8833 13.2461 12.8965 14.1694 12.8965 14.1694C12.8965 14.1694 12.8999 14.3671 12.8006 14.4719Z" fill="white"/>
</svg>
