<svg width="25" height="24" viewBox="0 0 25 24" fill="none" xmlns="http://www.w3.org/2000/svg">
<path fill-rule="evenodd" clip-rule="evenodd" d="M12.2161 0C5.58865 0 0.216064 5.37258 0.216064 12C0.216064 18.6274 5.58865 24 12.2161 24C18.8435 24 24.2161 18.6274 24.2161 12C24.2161 5.37258 18.8435 0 12.2161 0ZM13.1932 15.788C13.0749 15.9127 12.8439 15.9379 12.8439 15.9379H12.0788C12.0788 15.9379 10.391 16.0374 8.90416 14.5184C7.2827 12.861 5.85093 9.57278 5.85093 9.57278C5.85093 9.57278 5.76829 9.35708 5.85782 9.25323C5.95861 9.13586 6.23345 9.12849 6.23345 9.12849L8.06213 9.11681C8.06213 9.11681 8.23429 9.14446 8.35762 9.23357C8.45967 9.30731 8.51664 9.44434 8.51664 9.44434C8.51664 9.44434 8.81213 10.1781 9.20341 10.8417C9.96782 12.1378 10.3234 12.421 10.5826 12.2822C10.9607 12.08 10.8474 10.4503 10.8474 10.4503C10.8474 10.4503 10.8543 9.85914 10.6571 9.59551C10.5043 9.3915 10.2164 9.33189 10.0893 9.3153C9.98597 9.30178 10.155 9.06703 10.3741 8.96195C10.7034 8.80402 11.2844 8.79481 11.9712 8.80157C12.5064 8.8071 12.6604 8.83967 12.8695 8.88944C13.3548 9.00439 13.3397 9.37278 13.307 10.1678C13.2972 10.4056 13.2859 10.6816 13.2859 11.0003C13.2859 11.0719 13.2837 11.1483 13.2816 11.2268C13.2702 11.6341 13.2572 12.1006 13.5307 12.2742C13.6709 12.3627 14.0133 12.2871 14.8704 10.859C15.2767 10.1818 15.581 9.38597 15.581 9.38597C15.581 9.38597 15.6479 9.24401 15.7512 9.18318C15.857 9.12111 15.9998 9.14016 15.9998 9.14016L17.9242 9.12849C17.9242 9.12849 18.5027 9.06028 18.596 9.31714C18.6943 9.58568 18.38 10.2137 17.5937 11.2424C16.8478 12.2185 16.4848 12.5779 16.5181 12.8957C16.5425 13.1279 16.7784 13.338 17.2312 13.7502C18.1764 14.6116 18.4298 15.0648 18.4906 15.1737C18.4957 15.1827 18.4994 15.1894 18.5021 15.1937C18.9259 15.8838 18.0319 15.9379 18.0319 15.9379L16.3222 15.9612C16.3222 15.9612 15.9553 16.0325 15.472 15.7068C15.2188 15.5364 14.9715 15.258 14.7358 14.9928C14.376 14.5878 14.0435 14.2137 13.7598 14.3021C13.2834 14.4508 13.2978 15.458 13.2978 15.458C13.2978 15.458 13.3015 15.6737 13.1932 15.788Z" fill="white"/>
</svg>
